<?xml version="1.0" encoding="utf-8"?>
<!-- Generator: Adobe Illustrator 18.1.1, SVG Export Plug-In . SVG Version: 6.00 Build 0)  -->
<svg version="1.1" xmlns="http://www.w3.org/2000/svg" xmlns:xlink="http://www.w3.org/1999/xlink" x="0px" y="0px"
	 viewBox="0 0 1080 720" enable-background="new 0 0 1080 720" xml:space="preserve">
<g id="Background">
	<rect fill="#FFF3D3" width="1080" height="720"/>
</g>
<g id="Paper">
</g>
<g id="Outline">
	<path fill="none" d="M380.7,456.1L380.7,456.1C380.7,456,380.7,456.1,380.7,456.1z"/>
	<path fill="none" d="M312.1,442.5c-0.2-0.1-0.4-0.2-0.7-0.2C311.6,442.2,311.9,442.3,312.1,442.5z"/>
	<path fill="none" d="M313.2,444.8c0-0.8-0.3-1.6-0.8-2.1C312.9,443.2,313.2,444,313.2,444.8c1.2,0.5,2.2,1.1,3,1.8
		C315.4,445.9,314.4,445.3,313.2,444.8z"/>
	<polygon fill="none" points="313.2,444.8 313.2,444.8 313.2,444.8 	"/>
	<path fill="none" d="M312.8,444.9C312.8,444.9,312.8,444.9,312.8,444.9C312.8,444.9,312.8,444.9,312.8,444.9z"/>
	<path fill="none" d="M251.4,465.6c-0.2-0.1-0.4-0.2-0.6-0.3C251,465.4,251.2,465.5,251.4,465.6
		C251.4,465.6,251.4,465.6,251.4,465.6z"/>
	<path fill="none" d="M408.4,327.1L408.4,327.1c0.3,0,0.7,0,1,0C409.1,327.1,408.7,327.1,408.4,327.1z"/>
	<path fill="none" d="M311.8,445.7c0,0.2,0,0.3,0.1,0.5C311.8,446.1,311.8,445.9,311.8,445.7z"/>
	<path fill="none" d="M357.8,409c0.2,0.3,0.6,0.5,1.2,0.7v0C358.4,409.5,358,409.3,357.8,409z"/>
	<path fill="none" d="M311.8,445.7c0-0.2,0.1-0.3,0.3-0.4C312,445.4,311.9,445.5,311.8,445.7z"/>
	<path fill="none" d="M359.3,411.3c0.1,0.2,0.3,0.4,0.7,0.4C359.6,411.7,359.4,411.5,359.3,411.3z"/>
	<path fill="none" d="M225.8,329.2c1.2-1.1,2.5-2,3.9-2.7C228.3,327.2,227,328.1,225.8,329.2z"/>
	<path fill="none" d="M222.2,333.1L222.2,333.1c0.6-0.8,1.2-1.5,1.9-2.2C223.5,331.6,222.8,332.3,222.2,333.1z"/>
	<path fill="none" d="M245.1,395.9c0,0,0.1,0.1,0.1,0.1c0.9-1.4,1.8-2.9-2.2-2.8C246.9,393.1,246.2,394.4,245.1,395.9z"/>
	<path fill="none" d="M225.8,329.2c-0.6,0.5-1.2,1.1-1.7,1.7C224.7,330.3,225.2,329.7,225.8,329.2z"/>
	<path fill="none" d="M234,392.1c-0.3,0-0.6,0.1-0.9,0.1C233.4,392.1,233.7,392.1,234,392.1z"/>
	<path fill="none" d="M245.8,403.8c-0.7-2.3-1.2-4.8-0.5-7.4c0-0.1-0.1-0.2-0.2-0.3C244.5,398.7,245.1,401.3,245.8,403.8z"/>
	<path fill="#EBEBEB" d="M222.2,333.1c0.6-0.8,1.2-1.5,1.9-2.2c0.6-0.6,1.1-1.2,1.7-1.7c1.2-1.1,2.5-2,3.9-2.7
		c2.4-1.2,5.2-1.9,8.5-1.7c4.1,0.2,8.1-0.1,12.7-1.9c-2.4,2.9-9.8,7.3-14.1,7.9c-4.9,0.7-9.3,3.9-14.4,3.1l2.5,15.6
		c0.6,0.5,0.9,1.1,0.9,2c0,0.5-0.2,0.8-0.4,1.1l3,18.2c6.8,1.1,13,4.4,19.9,2.4c-2,1.2-3.7,2.8-6,2.7c-0.6,0-1.3,0.1-1.5,0.8
		c-0.2,0.5,0,1.1,0.5,1.3c3.5,0.9,6.3,3.9,9.8,5c1.2,0.4,2.4,0.6,3.8,0.4l0,0c0.1-5.1,1.9-6.3,6.5-4.4c0.6,0.2,1.2,0.8,1.7,0.4
		c3.2-3,8.6-1.7,11.2-5.8c0.5-0.8,1.6-1.1,3-1.1c-0.5,2.3-3,3-3.4,4.9c-0.4,2-2.6,2.7-3.1,5.3c3.1-2,5.8-3.7,8.5-5.4
		c0.9-0.5,1.9-2,2.8-0.8c0.9,1.1-0.7,2-1.5,2.6c-2.4,1.8-5,3.5-7.5,5.3c-1.1,0.8-2.6,1.1-3.5,0.2c-1.2-1.2-2.4-0.4-3.5-0.6
		c-1.9-0.3-2.6,1.4-3.2,2.5c-0.5,0.9,1.2,1.3,2.1,1.7c1.7,0.7,2.9,1.2,1.1,3.2c-0.9,1-0.4,1.8,1,1.9c1.2,0.1,2.5,0.4,3.7,0.5
		c3.5,0.4,5.6,3.2,4.4,6.4c-0.4,1-1.4,2.7-0.4,2.9c1.8,0.4,3.8,1.4,5.7,0.1c1.1-0.7,2.5-1.4,2-3.2c-0.5-1.8-0.9-3.6-1.4-5.4
		c-0.2-0.6-0.7-1.2-0.1-1.7c0.7-0.6,1.4-0.1,2,0.3c1.1,0.9,2.1,1.9,2,3.4c-0.3,3.2,1.4,5.4,3.8,7.6c0.9-2.7,4.1-5.1-0.6-7.4
		c-0.2-0.1-0.2-0.9-0.2-1.4c0,0,0,0,0,0c0,0,0,0,0,0c-2.3-2-3.2-6.6-1.7-9.7c0.9-1.9,2.3-3.5-1.1-4.2c-0.6-0.1-0.9-0.9-0.5-1.5
		c0.4-0.7,1.1-1.1,1.9-0.8c1.4,0.5,2.2,1.6,2.2,3.1c0.1,2.7,0.2,5.5-0.8,8.1c-0.7,1.7-0.5,3.4,0,5c0,0,0,0,0,0c0,0,0,0,0,0
		c3.5,0.2,5.6-1.4,7.3-4.5c1.1-2.1,1.5-1.8,1.8-8c1.9,1.6,1.9,1.6,2.1,4c0.3,3.6,2.5,5.8,6.1,5.4c7.4-0.7,14.8-1.6,22.2-2.5
		c2.9-0.4,4.8,0.4,7.4,2.2c2.7,1.9,5.8,4.1,8.4,6c5.6,4.1,11.5,2.6,17.4,3.6c4.5,0.7,9.8,0.4,12.9,5.1c0.4,0.6,1,0.9,1.6,0.4
		c0.6-0.5,0.1-1.1-0.1-1.7c-0.5-1.2-1.4-2.1-2.7-2.4c-0.9-0.2-1.9-0.7-1.3-1.7c0.5-0.9,1.6-0.5,2.4-0.1c1.9,0.9,3.8,1.7,5.8,3.5
		c0.2-3.1,0.5-3.8,3.9-3.7c3.9,0.1,8.6,0.3,12.4-1.8c0.7-0.4,1.2-0.1,1.7,0.1c0.8,0.3,1.8,1,2.4,0.7c5.5-2,8,2.4,11.4,5.1
		c0.9,0.7,1.7,2.3,3.1,1.4c1.4-0.9,1.3-2.2,0.3-3.5c-0.2-0.3-0.2-1.1,0-1.4c2.5-3.8,0.7-7.3-0.6-10.9c-0.2-0.6-0.6-1.2,0.2-1.5
		c0.2-0.1,0.9,0,1,0.2c2.1,4,5.9,2.7,9.2,3.2c1.4,0.2,2.9-0.3,4.8,0.8c-3,1.1-5.4,2.1-8.1,2.3c-1.7,0.1-3.3,0.6-3.1,2.9
		c0,0.8,0.2,1.5,1,1.9c0.8,0.4,1-0.6,1.4-0.8c2-0.7,4-1.3,6.1-1.7c1.3-0.2,2.6-0.3,2.4,2c-0.1,1.6,1.2,3,1.9,4.6l4.4-39.9
		c-1.3,0.5-2.7,0.2-3.6-0.8c-1.5-1.8-2.8-1.8-4.3-0.8c-2,1.3-0.5,2.8,0.1,4.2c-5.3,0.7-8.8,3.8-12,7c-1.6,1.6-2.9,2.2-4.8,1.7
		c-1.8-0.5-1.9-2.2-2.4-3.8c-1.4-4.4-1.8-9.2-3.9-13.4c-0.5-1-1.7-2.4-0.4-3.3c1.2-0.9,2.3,0.2,3.2,1.1c4.2,3.8,9.1,4.9,14.6,4.3
		c0.4,0,0.9-0.4,1.2-0.7c0.3-0.5,0-1-0.4-1.2c-0.8-0.5-1.7-1.3-2.6-1.4c-1.6-0.2-2.8-1.2-3.9-2.1c-1.4-1-3.3-2.9-2.5-4.1
		c1.1-1.6,3.3-0.8,4.8,0.7c0.7,0.6,1.5,1.2,2.3,0.4c0.8-0.8,0.5-1.8,0.2-2.8c-0.2-0.8-1.8-1.8-0.3-2.4c1.4-0.6,3.2-0.6,4.6,0.5
		c1.1,0.9,1.3,1.8,0.1,2.7c-1.2,0.9-0.8,1.6,0.1,2.4c0.3,0.3,0.7,1.1,0.6,1.2c-3.5,3,0.9,3.5,1.7,5.2c0.7,1.5,2.2,1.2,2.7,0.2
		c1.5-3,2.5-1.1,3.8,0.1c0.3,0.3,0.6,0.5,0.8,0.8c0.2,0.3,0.5,0.5,0.9,0.7l8.3-75.7c0,0-11.2,4.7-30.2,9.7c0.2,2.4,0.8,4.8,0.2,7.2
		c-0.2,1-0.2,1.9-2,2.7c0.3-3.3-0.2-6.3-1-9.2c-41.5,10.5-117,20.9-196.1-10.4L222.2,333.1z M410.2,398.5c0.2-0.9,1-0.9,1.7-0.9
		c0.6,0,1.3,0,1.4,0.8c0,1.1-0.9,1.2-1.5,1.4C410.7,399.7,410,399.5,410.2,398.5z M423.1,335.7c-0.3,1.9-2.2,0.8-3.5,1.1
		c-0.5,0.1-1,0-1.5,0c-8.2,0-9.7-1.4-9.7-9.7c0,0,0,0,0,0l0,0l0,0c-0.1-0.1-0.2-0.1-0.3-0.2c0.1,0.1,0.2,0.1,0.3,0.2c0,0,0,0,0,0
		c0.3,0,0.7,0,1,0c0.3,0,0.6,0.1,0.8,0.2c2.8,3.1,6.7,3.9,10.3,5.5C421.8,333.4,423.3,334.3,423.1,335.7z M419.3,313.2
		c-1.7,0.5-3.2-2.6-4.4-0.2c-1,2.1-1,4.4,1.1,6.1c1.2,1,2.5,2,3.8,3.1c0.6,0.6,1.5,1.2,1.1,2.2c-0.4,0.9-1.3,1.1-2.2,1.1
		c-3.7-0.1-6.9-1.5-8.8-4.5c-1.2-1.9-2.4-3.7-3.7-5.6c-0.7-1-1.9-1.9-1.1-3.3c0.8-1.4,2.2-0.7,3.4-0.8c1.5-0.2,2.6,0.7,3.9,1.4
		c-0.2-2.8-0.2-2.7-3.9-4.1c-1.9-0.8-3.7-1.9-5.7-3C406.5,303.7,418.4,309.1,419.3,313.2z M397.6,331.8c3.4-1.1,5.7,1.9,8.5,2.9
		c1.4,0.5,0.1,1.8-0.9,1.9c-3.7,0.1-7.5,0.4-11.1-0.2c-2.5-0.4-2.2-3.1-2.8-6.2C393.7,332.4,395.5,332.5,397.6,331.8z M365,365.3
		c0.4-2.6,1.1-5.1,0.3-7.7c-0.3-0.8,0-1.6,0.9-1.7c1,0,0.9,1,0.9,1.7c0.1,3.1,0.4,6.1,0,9.2c-0.2,2.1,1.8,2.9,1.9,4.6
		C366.1,371.1,364.5,369,365,365.3z M231.2,354.5c1,1.6,1.6,2.5,2.2,3.4C231,358,231,358,231.2,354.5z M238.1,366.4
		c-2.3-0.8-4.4-2.1-7.1-2.1c1-2.9,4.9-0.6,5.6-3.5h0v0c-0.5-0.1-1-0.1-1.1-0.7c0-0.1,0.3-0.4,0.4-0.4c0.6,0.1,0.6,0.6,0.7,1.1
		c0,0,0,0,0,0c3.5-0.3,3.1,2.7,3.5,4.6C240.5,367,239.1,366.8,238.1,366.4z M329.7,359.3c0.5,0.1,1,0.1,1.1,0.7
		c0,0.1-0.3,0.4-0.4,0.4c-0.3,0-0.5-0.2-0.5-0.4C329.7,359.8,329.7,359.6,329.7,359.3L329.7,359.3c-2.3-0.8-4.7-1.5-6.8-3.5
		c-0.7-0.6-1.4-1.4-2-2.4c3.1,0.7,4.5,3.2,7.4,2C330,354.7,329.4,357.9,329.7,359.3z M253.8,339.1c0.2-1.2,3.6-0.2,5.2-1.4
		c0.4-0.3,1.6,0,1.8-0.3c3.7-6.1,5.8-0.4,8.4,1.1c0.7,0.4,1.1,1.6,2.2,1c1-0.7,0.9-2,0.4-2.7c-1.9-2.9-1.1-5.8-0.4-8.7
		c0.6-2.2-0.3-2.6-2.2-2.5c-1.3,0-2.5,0.3-3.6,1c-3.6,1.9-7.4,1.2-11.2,1.1c1.4-5.4,6.6-7.7,10.1-7.4c4,0.2,9.8,0.3,12.4,5.4
		c-3.8,1.8-5.2,5.2-4.1,9.1c0.3,1.1,0.9,1.5,1.9,1.1c1.1-0.3,2.1-0.9,3.2-1c2.2-0.3,2.5-1.2,1.3-2.9c-0.4-0.6-1.2-1.2-0.7-2
		c0.6-0.9,1.6-0.1,2.4-0.3c6.7-1.6,8.1,3.3,9.9,7.9c0.8,2.1,1.7,4.2,2.2,6.3c1,3.9,3.1,5.1,6.3,2.7c2.9-2.1,4.1-1.4,4.2,1.9
		c0.1,2.5,1.8,3.1,3.6,2.4c2.3-0.8,4.4-2.1,6.4-3.5c2.1-1.6,3.3-4.9,7-3.2c0.6,0.3,1.4-0.4,1.4-1.3c0-0.9-0.7-1.3-1.5-1.4
		c-2.2-0.2-4.4-0.9-6.6-0.9c-3.1,0-5.3-1-4.5-5c0.4-2.1-1.1-3.9-3-4.7c-4.7-2.3-9-5.8-14.9-3.8c-1.4,0.5-3.1,0.1-4.6-0.4
		c2.7-1.3,5.6-1.6,8.4-1.9c2-0.2,5.1-0.3,2.6-3.9c1.5-0.5,2.4,0.8,3.6,1c0.8,0.1,1.6,0.5,1.6,1.3c0,1-1,0.9-1.7,1
		c-0.8,0.1-1.6,0.2-1.4,1.3c0.1,0.8,0.8,0.8,1.4,1c5.1,1.1,8.9,4.3,12.2,8c0.3,0.4,0.8,0.8,1.2,0.8c4.4,0.4,8.6,1.4,13,2.5
		c0.1,1.9-3.5,2.1-3,4.3c0.4,1.8,3.8,1.4,3.7,4.2c-0.5-0.1-0.9,0-1.1-0.2c-1.3-0.9-2.6-1.3-4.1-0.9c-0.2,0.1-0.3,1-0.2,1.3
		c0.7,1.6,2.2,2.4,3.7,2.8c0.9,0.2,2.1-0.5,2.1,1.2c0,0.6-0.1,1.5-0.5,1.7c-0.9,0.5-1.6-0.5-2.2-0.9c-2-1.3-3.7-3-6.1-3.6
		c-0.9-0.2-2.8-0.8-1.5,1.5c0.2,0.3,0.2,0.7,0.1,1c-0.5,1.5-9.5,5.9-11,5.2c-1.4-0.6-2.1,0.2-3,0.8c-0.6,0.4-1.4,0.9-1,1.8
		c0.4,0.9,1.2,0.5,1.9,0.4c4.5-0.6,10.2,0.1,13.4,2c-3.4,0-6.8,0.1-10.2,0c-2.5-0.1-4.2,1.6-5.9,3c-6.6,5.3-14.6,5.9-21.7,1.2
		c-2-1.4-3.8-1.4-5.9-0.9c-2.2,0.5-4.5,1.7-6.9,0.6c-1.3-0.6-3.3-0.1-1.2-2.6c1.9-2.2-2.7,0.4-1.8-1.8c0.4-1,2.9-1.7,1.3-2.8
		c-2.8-2-5.9-3.5-8.3-6.1c-0.9-0.9-2.5,0.3-1.9,1.9c1.6,4.6,0,9.8,2.9,14.1c0.4,0.7,0.5,1.5,0.1,2.1c-0.6,1-0.2,2.9-2,2.7
		c-1.2-0.1-1.4-1.6-1.4-2.7c-0.1-5.5-1.5-10.6-3.2-15.9C251.8,348.8,252.9,343.7,253.8,339.1z M264.4,328.7c1.3,0.3,1.5,1.4,1.5,2.6
		c0,0.6-0.1,1.5-0.9,1.4c-1.4-0.3-1.7-1.6-1.9-2.9C263,329.1,263.6,328.7,264.4,328.7z M244.3,347.8c-0.9-0.3-1.9-1-1.3-2.3
		c0.5-1.1,1.4-1.3,2.5-0.9c2.6,1,5.4,1.7,6,5.6C248.8,349.3,246.5,348.7,244.3,347.8z"/>
	<path fill="#ECEAEB" d="M234,392.1c4.2-0.3,7.6,1.4,11.1,3.8c1.1-1.4,1.8-2.8-2.1-2.7c4-0.5,7.2-3.4,10,0.8c0.6,1,2.2,0.8,4,0.1
		c-3.3-2.4-4.8-6.3-9.3-6.5c-1.2,0-2.2-1.1-3.1-2c-4.6-5.2-8.4-11.5-15.9-13L231,387c0.5,0,1,0,1.5,0.1c1.9,0.1,4-0.4,6.3,0.6
		c-2.2,1.6-4.5,0.6-6.5,0.9c-0.3,0-0.6,0-1,0.1l0.5,2.8c0.4,0.3,0.9,0.7,1.3,0.7C233.4,392.1,233.7,392.1,234,392.1z"/>
	<path fill="#DEDEDE" d="M417.3,473.6c-2.3,0.4-3.7-0.1-5.3-1.5c-3.9-3.4-5-3-5.9,2c-0.2,1.1-0.7,2.1-1.1,3.1
		c-0.5,1.2,1.3,1.8,0.6,3.2c-2.1-0.1-2.8-1.6-3.3-3.4c-0.7-2.9-1.5-5.8-2.1-8.7c-0.3-1.6-1.1-2.8-2-3.9c-1-1.4-2.3-1.1-2.8,0.5
		c-1,2.8-2.3,5.8,1.4,7.8c0.3,0.2,0.5,0.5,0.7,0.8c0.1,0.1,0,0.2,0.1,1.2c-2.5-1-5.4-0.2-5.7-4.2c-0.2-2.3-2.9-4.3-0.4-6.9
		c0.4-0.4-0.6-1-1.2-0.9c-5.2,0.9-8-1.3-8.6-6.4c0,0,0-0.1-0.1-0.1c-0.2-0.1-0.6-0.2-0.9-0.3l0,0l0,0c-0.1,1.2-1.2,2-0.7,3.7
		c0.8,2.7-2.4,4-3.5,6.2c-0.3,0.5-0.9,0.2-1.3-0.1c-0.7-0.8-0.6-1.5,0-2.4c0.8-1.2,3.1-2.1,2.1-3.5c-1-1.4-2.9,0.1-4.4,0.4
		c-1,0.2-1.9,0.1-2.9-0.2c-5.1-1.7-10.2-3.3-15.6-4.1c-2.8-0.4-2.8-3-2.9-5c-0.2-2.5-0.2-4.9-1.3-7.2c-0.3,0.1-0.6,0.1-0.7,0.2
		c-1.3,1.3,1.3,3.8-0.7,4.1c-2.1,0.4-4.7-1-5.8-2.8c-2.1-3.1-3.6-3.4-7-1.6c-3.4,1.9-7.6,0.5-11.2-0.3c-2.2-0.5-2.5-3.3-2.5-5.4
		c0-2.1-0.6-3.4-2.6-4.5c-2.1-1.1-3.8-2.8-5-4.8c-2.5-4.1-6.2-6.8-10.4-8.6c-1.8-0.8-3.9,1.2-6,1.7c-1.3,0.4,0.5,2.3,1.2,3.3
		c2.4,3.7,5.7,6.9,7.4,11.1c0.3,0.7,0.9,1.3,1,2c0.4,2,0.8,3.8,3.5,3.8c0.3,0,0.5,0.1,0.7,0.2c0.1,0.1,0.2,0.2,0.3,0.3
		c0.5,0.5,0.8,1.3,0.8,2.1c1.2,0.5,2.2,1.1,3,1.8c1.4,1.2,2.5,2.9,3,4.9c0,0,0,0,0,0c0.1,0.1,0.2,0.1,0.3,0.2
		c-0.1-0.1-0.2-0.1-0.3-0.2c0,0,0,0,0,0c-3.4-1-4.5-4-6-6.7h0l0,0c-0.1,0-0.2,0.1-0.4,0.1c0,0,0,0-0.1,0c-0.3,0.1-0.5,0.2-0.7,0.3
		c-0.1,0.1-0.2,0.3-0.3,0.4c0,0,0,0,0,0.1c0,0.2,0,0.3,0.1,0.5c0.1,0.4,0.4,0.8,0.7,1.3c1.6,2.7,2.8,5.6,4.9,8.3
		c-6.6-3-13.8-3.5-20.1-6.6c-3.8-1.9-7.8-3.7-11.7-4.7c-6-1.6-11.7-4.4-18.1-4.3c-0.6,0-1.3-0.2-1.7-0.6c-2.8-1.9-5.6-2.6-8.8-0.8
		c-1.7,1-1.7-0.7-2.2-1.6c-1.9-3.3-5.4-4.3-9-2.3c2.3,1.2,4.3,2.6,4.9,5.2c-4.4,0.3-7.1-1.8-6.8-5.9c0.1-1.5,0.2-3-1.2-3.5
		c-1.4-0.5-3.2-0.9-4.6-0.5l0.7,4.4c3,0.5,3.9,2.7,5.1,4.9c0.3,0.6,1.2,1.2,0.3,1.9c-0.6,0.5-1.4,0.3-2.1,0
		c-1.1-0.4-1.9-1.2-2.5-2.1l0.6,3.7c3.7,2.9,7.7,5.3,11.5,7.9c3.2,2.1,6.6,2.7,5,8c2.9-2.6,6.9-2.4,10.4,0.1c0.4,0.3,0.9,0.6,1.1,1
		c0.7,1.6,5,0.6,3.3,3.2c-1.2,1.9-3.2,4.9-6.7,3.9c-2.8-0.8-6.4,1-8.5-2.6c-1-1.8-1.3-3.7-1.6-5.6c-0.5-3-1.8-5.4-5-6.2
		c-2.9-0.7-4.9-3.3-8.5-3.9l0.2,1.3c2.4,2.2,2.7,5.2,4.3,7.5c1.1,1.5,1.4,3.5,3.5,4.1c0.7,0.2,1.2,1.1,0.7,1.9
		c-0.6,0.9-1.3,0-1.9-0.3c-2.1-0.8-3.7-2.1-5.1-3.6l1.8,11.2c0.7,0.6,0.6,0.9,0.2,1.2l0.4,2.2c0,0,0,0.1,0.1,0.3
		c1.4,0.3,2.6,0.9,3.8,1.6c3.9,2.1,3.9,2.1,5.8,6.8c-0.4,0.5-1,0.3-1.3-0.1c-1.7-2-3.1-5-6.3-3.2c3.5,8,10.8,21.9,20.3,22.6
		c0,0,85.1,14.3,143-3.4c0,0,9.1-3.3,12-24.6C421.5,473.6,419.7,473.2,417.3,473.6z M251.1,466.2c-0.1,0.1-0.5-0.1-0.5-0.2
		c-0.1-0.1,0.1-0.4,0.2-0.6c0.2,0.1,0.4,0.2,0.6,0.3c0,0,0,0,0,0l0,0C251.3,465.8,251.2,466.1,251.1,466.2z M264.1,475.3
		c-2.5-1.4-4.8-2.6-7.7-1.4c-0.7,0.3-1.6,0.2-1.9-0.6c-0.3-1,0.6-1.3,1.3-1.4c2.8-0.5,5.8-2.4,8.1,1.2c0.3,0.5,1.9,0.3,2.9,0.3
		c4.4-0.3,8.5,1,13.4,1C275.9,480,270.2,478.6,264.1,475.3z M296.2,483.3c-0.3,1.7-2.2,1.1-3.5,1.2c-0.4,0-0.7,0-1.5,0
		c-1.6,0.2-3.2,0.1-4.2-2.2c-0.7-1.8-2.9-1.7-4.5-2.4c-0.7-0.3-1.5-0.6-1.3-1.5c0.2-0.8,1-0.6,1.6-0.7c1.5-0.1,3,0,4.3,0.9
		c1.8,1.3,3.7,1.8,5.9,2.1C294.5,481.1,296.5,481.4,296.2,483.3z M294,475.4c1.2-0.9,2.5-0.3,2.9,0.5c1.8,3.9,5.1,4.4,8.6,4
		c2.9-0.3,4.2,1.4,6.1,3.4C302.4,483.9,301.6,483.5,294,475.4z M325.1,457.7c2.1,2.1,3.9,3.8,4,6.6c0,0.5,0.3,1.1-0.3,1.3
		c-0.4,0.2-1.3,0.1-1.3-0.1C326.5,463,323.2,461.4,325.1,457.7z M336.4,484.2c-1.2,1.1-0.7,1.5-0.6,2c0.2,0.8,1.1,1.6,0.2,2.4
		c-0.8,0.7-1.8-0.1-2.3-0.6c-1.7-1.8-4-2.4-6.1-3.5c-2.8-1.5-2.8-3.6-1.6-7.3c0.9,5.7,4.7,5.4,8,5.6c4.1,0.3,8.5-0.3,11.7,3.2
		c1.1,1.2,3.2,0.5,4.2,2.2c0.8,1.4,1.9,2.5,3,4C345.3,493.4,340.1,490.1,336.4,484.2z M356.7,492.6c-1.5-1.7-1.7-3.6-2.4-5.3
		c-0.9-2.4-2.7-4.4-5.8-4.3c-0.8,0-2,0.1-2.1-1c-0.1-1.2,1.1-1.2,1.8-1.5c1.5-0.5,3-1,4.5-1.7c1.7-0.8,3.2-0.3,4.1,1.9
		C358.4,484.7,358.9,488.5,356.7,492.6z M379,470.1c-4.6,0.6-4.3,4-4.3,7.3c0,1,0.6,2.5-0.8,2.9c-1.2,0.3-1.8-0.9-2.6-1.8
		c-2.4-2.6-5.5-1.9-8.5-1.6c-0.9,0.1-2.2,1.2-2.7,0.1c-0.7-1.5,1.1-1.6,1.8-2.3c2.3-2.2,6.6-1.8,7.8-5.6c0.1-0.2,0.8-0.5,1-0.3
		c3.5,2.4,5.6-0.5,8.2-1.9c0.9-0.5,1.4-0.3,1.6,0.7C380,468.5,380.1,470,379,470.1z"/>
	<path fill="#DFDDDF" d="M244.7,471l0.2,1.2C245.3,471.9,245.5,471.5,244.7,471z"/>
	<path fill="#DFDDDF" d="M242.1,441.5c0.7,0.2,1.5,0.5,2.1,0c0.8-0.7,0-1.3-0.3-1.9c-1.2-2.1-2.1-4.4-5.1-4.9l0.8,4.7
		C240.3,440.3,241,441.1,242.1,441.5z"/>
	<path fill="#DFDDDF" d="M248,463.3c0.6,0.2,1.3,1.2,1.9,0.3c0.5-0.7,0.1-1.7-0.7-1.9c-2.1-0.6-2.5-2.6-3.5-4.1
		c-1.6-2.3-2-5.3-4.3-7.5l1.6,9.6C244.3,461.2,245.9,462.6,248,463.3z"/>
	<path fill="#DFDDDF" d="M238.8,387.6c-2.3-1-4.3-0.5-6.3-0.6c-0.5,0-1-0.1-1.5-0.1l0.3,1.7c0.3,0,0.6,0,1-0.1
		C234.3,388.3,236.5,389.2,238.8,387.6z"/>
	<path fill="#E5E5E5" d="M425.9,397.6c-2.1,0.4-4.1,1-6.1,1.7c-0.4,0.1-0.6,1.1-1.4,0.8c-0.8-0.4-0.9-1.1-1-1.9
		c-0.1-2.2,1.4-2.8,3.1-2.9c2.7-0.2,5.1-1.2,8.1-2.3c-1.9-1.1-3.4-0.6-4.8-0.8c-3.3-0.5-7.1,0.7-9.2-3.2c-0.1-0.2-0.7-0.4-1-0.2
		c-0.8,0.4-0.4,0.9-0.2,1.5c1.2,3.6,3.1,7.1,0.6,10.9c-0.2,0.3-0.2,1.1,0,1.4c1,1.3,1.2,2.6-0.3,3.5c-1.4,0.9-2.2-0.7-3.1-1.4
		c-3.3-2.7-5.9-7.1-11.4-5.1c-0.6,0.2-1.6-0.5-2.4-0.7c-0.6-0.2-1-0.5-1.7-0.1c-3.9,2.2-8.5,1.9-12.4,1.8c-3.4-0.1-3.7,0.6-3.9,3.7
		c-2-1.8-3.9-2.6-5.8-3.5c-0.8-0.4-1.9-0.7-2.4,0.1c-0.6,1.1,0.5,1.5,1.3,1.7c1.3,0.4,2.1,1.3,2.7,2.4c0.2,0.5,0.8,1.1,0.1,1.7
		c-0.6,0.5-1.2,0.2-1.6-0.4c-3.1-4.7-8.4-4.4-12.9-5.1c-5.8-1-11.8,0.6-17.4-3.6c-2.6-1.9-5.7-4.1-8.4-6c-2.6-1.8-4.5-2.5-7.4-2.2
		c-7.4,0.9-14.8,1.8-22.2,2.5c-3.6,0.3-5.8-1.9-6.1-5.4c-0.2-2.4-0.2-2.4-2.1-4c-0.3,6.2-0.7,5.9-1.8,8c-1.7,3.1-3.8,4.7-7.3,4.5
		c0.1,0.5,0,1.3,0.2,1.4c4.6,2.2,1.5,4.7,0.6,7.4c-2.4-2.2-4.1-4.4-3.8-7.6c0.1-1.5-0.9-2.5-2-3.4c-0.6-0.5-1.3-1-2-0.3
		c-0.6,0.5-0.1,1.1,0.1,1.7c0.5,1.8,0.9,3.6,1.4,5.4c0.5,1.8-0.9,2.4-2,3.2c-1.9,1.2-3.9,0.3-5.7-0.1c-1-0.2,0.1-1.9,0.4-2.9
		c1.2-3.2-0.9-6-4.4-6.4c-1.2-0.1-2.5-0.4-3.7-0.5c-1.4-0.1-2-0.9-1-1.9c1.8-2,0.7-2.5-1.1-3.2c-0.8-0.3-2.5-0.7-2.1-1.7
		c0.5-1.1,1.3-2.9,3.2-2.5c1.1,0.2,2.3-0.5,3.5,0.6c0.9,0.9,2.3,0.6,3.5-0.2c2.5-1.7,5-3.4,7.5-5.3c0.8-0.6,2.4-1.4,1.5-2.6
		c-0.9-1.2-2,0.3-2.8,0.8c-2.7,1.7-5.4,3.4-8.5,5.4c0.5-2.6,2.6-3.3,3.1-5.3c0.4-1.8,2.9-2.6,3.4-4.9c-1.4,0-2.5,0.3-3,1.1
		c-2.6,4.1-8,2.9-11.2,5.8c-0.5,0.4-1.1-0.2-1.7-0.4c-4.6-1.8-6.3-0.7-6.5,4.4c1.3,0,2.6,0,4.4,0c-2.5,2.6-2.5,2.6-4.4,0
		c-1.4,0.2-2.6,0-3.8-0.4c-3.5-1.1-6.2-4.1-9.8-5c-0.5-0.1-0.7-0.7-0.5-1.3c0.3-0.7,0.9-0.8,1.5-0.8c2.3,0.1,4-1.5,6-2.7
		c-6.9,2-13.1-1.3-19.9-2.4l0.3,1.7c7.6,1.5,11.3,7.8,15.9,13c0.9,1,1.8,2,3.1,2c4.5,0.2,6.1,4.1,9.3,6.5c-1.8,0.7-3.4,0.9-4-0.1
		c-2.7-4.2-6-1.3-10-0.8c4,0,3.1,1.4,2.2,2.8c0,0.1,0.1,0.2,0.2,0.3c0-0.1,0.1-0.3,0.1-0.4c1.5,4.6,5.7,7.6,6.8,12.3
		c0.4,1.7-0.4,2.3-2.1,1.7c-2.9-1-3.6-3.7-4.3-6.1c-0.7-2.4-1.3-5.1-0.6-7.8c0,0-0.1-0.1-0.1-0.1c-3.5-2.4-6.9-4.1-11.1-3.8
		c-0.3,0-0.6,0.1-0.9,0.1c-0.4,0.1-0.9-0.3-1.3-0.7l6.3,38.9c1.4-0.3,3.2,0,4.6,0.5c1.4,0.5,1.3,2,1.2,3.5c-0.2,4,2.4,6.2,6.8,5.9
		c-0.6-2.6-2.7-4-4.9-5.2c3.6-2,7.1-1,9,2.3c0.5,0.9,0.6,2.6,2.2,1.6c3.2-1.9,6-1.2,8.8,0.8c0.5,0.3,1.2,0.6,1.7,0.6
		c6.4-0.1,12.1,2.7,18.1,4.3c3.9,1,7.9,2.9,11.7,4.7c6.3,3.1,13.5,3.6,20.1,6.6c-2.1-2.7-3.3-5.6-4.9-8.3c-0.3-0.5-0.5-0.9-0.7-1.3
		c-0.1-0.2-0.1-0.4-0.1-0.5c0,0,0,0,0-0.1c0-0.2,0.1-0.3,0.3-0.4c0.1-0.1,0.4-0.2,0.7-0.3c0,0,0,0,0.1,0c0.1,0,0.2-0.1,0.4-0.1l0,0
		c0,0,0,0,0,0c0-0.8-0.3-1.6-0.8-2.1c-0.1-0.1-0.2-0.2-0.3-0.3c-0.2-0.1-0.4-0.2-0.7-0.2c-2.7-0.1-3.1-1.8-3.5-3.8
		c-0.1-0.7-0.7-1.3-1-2c-1.7-4.2-5-7.4-7.4-11.1c-0.6-1-2.5-2.9-1.2-3.3c2-0.6,4.2-2.5,6-1.7c4.2,1.8,7.9,4.5,10.4,8.6
		c1.2,2,3,3.7,5,4.8c1.9,1,2.6,2.3,2.6,4.5c0,2.1,0.3,4.9,2.5,5.4c3.7,0.8,7.8,2.2,11.2,0.3c3.4-1.9,4.9-1.6,7,1.6
		c1.2,1.7,3.7,3.2,5.8,2.8c2-0.4-0.6-2.9,0.7-4.1c0.1-0.1,0.4-0.1,0.7-0.2c1.1,2.3,1.1,4.7,1.3,7.2c0.1,2,0,4.6,2.9,5
		c5.4,0.8,10.5,2.5,15.6,4.1c1,0.3,1.9,0.4,2.9,0.2c1.5-0.3,3.4-1.8,4.4-0.4c1,1.4-1.3,2.3-2.1,3.5c-0.5,0.8-0.7,1.6,0,2.4
		c0.4,0.4,1,0.7,1.3,0.1c1.1-2.2,4.3-3.5,3.5-6.2c-0.5-1.7,0.6-2.5,0.7-3.7c-2.4-0.8-3.5-2.4-3.8-4.9c-0.5-4.7-3.6-6.2-7.8-3.8
		c-1.1,0.6-1.9,0.1-2.8-0.3c-5-2.2-8.1-6.6-12-10c-1.1-0.9-0.9-2.4-0.3-3.5c0.7-1.2,1.7-0.1,2.6,0.2c4,1.2,6,4.8,9,7.2
		c1.6,1.3,8.5,3,9.9,1.7c1.2-1.1,2.3-2.2,3.9-1.2c1.7,1.1,2,3.3,1.1,4.7c-2,3.5-0.1,6.6,0.2,9.9c0.3,0.1,0.7,0.2,0.9,0.3
		c0.1,0,0.1,0.1,0.1,0.1c0.6,5.2,3.4,7.3,8.6,6.4c0.6-0.1,1.6,0.5,1.2,0.9c-2.5,2.5,0.2,4.6,0.4,6.9c0.3,3.9,3.3,3.1,5.7,4.2
		c-0.1-0.9,0-1.1-0.1-1.2c-0.2-0.3-0.4-0.7-0.7-0.8c-3.7-2.1-2.3-5-1.4-7.8c0.5-1.6,1.8-1.8,2.8-0.5c0.9,1.2,1.7,2.3,2,3.9
		c0.5,2.9,1.3,5.8,2.1,8.7c0.4,1.7,1.1,3.2,3.3,3.4c0.7-1.4-1.1-2-0.6-3.2c0.4-1,0.9-2.1,1.1-3.1c0.9-5,1.9-5.5,5.9-2
		c1.6,1.4,3,1.9,5.3,1.5c2.4-0.4,4.2,0,5.4,1c0.3-2.4,0.6-5,0.7-7.8l0.7-6c-0.8-0.6-1.7-1.3-2.7-1.9c1,0,2,0,2.9,0l6-54.6
		c-0.7-1.6-2-3-1.9-4.6C428.4,397.3,427.2,397.4,425.9,397.6z M240.6,399.5c-0.1-0.5,0.3-1,0.9-0.9c1.4,0.4,2.4,1.2,2.4,3.2
		C242.1,401.6,240.9,401.2,240.6,399.5z M272.8,398.8c-1.2,1.7-0.6,3.5-0.6,5.3c0,2.2-2.5,2.8-3.5,4.4c-0.3,0.4-1-0.4-1.1-1.1
		c-0.3-1.7-0.6-3.4-0.8-4.5c0-3.5,2.1-5.5,5-5.4C272.4,397.7,273.4,397.8,272.8,398.8z M311.7,419.6c0,0.6,0,1.4-0.7,1.5
		c-0.7,0.2-1-0.5-1.4-1c-3.2-3.9-6.7-4.6-10.4-2.2c-3.1,2-3.1,2-6-1c-2.5-2.6-4.8-2.7-8-0.5c-0.4,0.3-1.1,0.6-1.3,0.5
		c-2.6-1.6-5.6-1.3-8.4-2c5.7-2,5.6-2,1.7-6.9c-0.7-0.8-2.1-1.5-1.6-2.7c0.6-1.6,2-0.1,2.9-0.5c4.6-1.8,6.6,1.1,8.5,4.4
		c0.5,0.9,1,1.8,2.8,1.5c-0.9-1.6-1.7-2.9-2.8-4.7c3.1,0.3,5.4,2.2,6.9,3.6c4.4,4.1,7.8,3.4,12.1,0.2c3.3-2.5,5.7-1.1,5.9,3
		C311.8,415.1,311.7,417.3,311.7,419.6z M323.5,402.8c-0.6,0.9-9.2,2.7-10.2,2.1c-1.6-0.9-3.3-1.8-4.9-2.8c-0.5-0.3-1-0.9-0.8-1.5
		c0.2-0.7,1-0.7,1.6-0.7c4.2-0.2,8.5,0.4,12.7-0.4c1.6-0.3,1.6,1.1,1.8,2.2C323.6,402,323.7,402.5,323.5,402.8z M327.9,403.6
		c3-1.3,6.2-1.8,10.4-2C334.6,404.4,331.1,403.1,327.9,403.6z M350.9,436c-0.3,0.4-1.4,0.6-1.6,0.3c-3.1-3.3-7.9-3.9-11.2-6.8
		c-0.3-0.3-0.5-0.8-0.7-1.2c3.1,1,5.2-0.9,7.4-1.7c2.2-0.8,3.3-0.1,2.8,2.1c-0.6,2.8,0,4.7,2.7,5.9
		C350.9,434.8,351.4,435.5,350.9,436z M360.4,411.5c-0.2,0.1-0.3,0.1-0.5,0.1c-0.3,0-0.5-0.1-0.7-0.4c-0.2-0.4-0.2-1.1-0.3-1.7
		c-0.6-0.1-1-0.3-1.2-0.7c-0.1-0.1-0.1-0.2-0.2-0.3c0-0.1-0.1-0.2-0.1-0.3c0-0.2,0-0.5,0.1-0.8c0.2-0.5,0.6-0.8,1.1-0.7
		c1.2,0.1,1.6,1.1,1.7,2.1c3.5-0.6,7-2.2,10.7-0.8C367.5,409,363.9,410.1,360.4,411.5z M375.6,415.1c-0.6,1.1-1.2,1-2,0.2
		c-1.8-1.9-4.9-0.6-7-2.9c3.1-1.2,5.5,0.2,8.1,0.4C375.9,412.9,376.3,413.9,375.6,415.1z M391.8,433.6c-0.4-0.3-0.8-0.4-0.9-0.6
		c-0.2-0.4,0.2-0.7,0.6-0.7c0.3,0,0.6,0.3,0.9,0.4C392.2,432.9,392,433.2,391.8,433.6z M400.8,441.1c-1.3,0.7-2.6,0.7-3.4,0.7
		c-4.2,0-5.9-2.7-4.6-6.3c0.5-1.4,1.2-0.9,2-0.4c1.8,1.2,3.8,1.9,5.7,2.6c0.8,0.3,2.3-0.2,2.3,1.3
		C402.8,440.1,401.7,440.6,400.8,441.1z"/>
	<path fill="#DFDDDF" d="M253.8,483.1c0.3,0.4,0.8,0.6,1.3,0.1c-1.9-4.7-1.9-4.7-5.8-6.8c-1.2-0.7-2.4-1.4-3.8-1.6
		c0.3,0.7,1,2.7,2.1,5.2C250.7,478.1,252,481.1,253.8,483.1z"/>
	<path fill="#DFDDDF" d="M254.7,459c0.3,1.9,0.6,3.8,1.6,5.6c2.1,3.6,5.6,1.8,8.5,2.6c3.5,1,5.5-2,6.7-3.9c1.7-2.6-2.6-1.6-3.3-3.2
		c-0.2-0.4-0.7-0.7-1.1-1c-3.5-2.5-7.5-2.8-10.4-0.1c1.6-5.3-1.8-5.9-5-8c-3.8-2.6-7.8-5.1-11.5-7.9l1,5.8c3.6,0.6,5.6,3.2,8.5,3.9
		C252.8,453.6,254.2,456,254.7,459z"/>
	<polygon fill="#DFDDDF" points="287.7,395.3 287.7,395.3 287.7,395.3 	"/>
	<path fill="#E5E5E5" d="M256.2,368.8c0,1.1,0.2,2.6,1.4,2.7c1.8,0.2,1.4-1.7,2-2.7c0.4-0.7,0.3-1.5-0.1-2.1
		c-2.9-4.3-1.3-9.5-2.9-14.1c-0.6-1.7,1-2.9,1.9-1.9c2.4,2.6,5.5,4.2,8.3,6.1c1.7,1.1-0.9,1.8-1.3,2.8c-1,2.2,3.6-0.4,1.8,1.8
		c-2.1,2.5-0.1,2,1.2,2.6c2.5,1.1,4.7,0,6.9-0.6c2.2-0.5,3.9-0.4,5.9,0.9c7.1,4.7,15.1,4.1,21.7-1.2c1.7-1.3,3.3-3,5.9-3
		c3.4,0.1,6.8,0,10.2,0c-3.2-2-8.9-2.6-13.4-2c-0.7,0.1-1.5,0.5-1.9-0.4c-0.4-0.9,0.4-1.3,1-1.8c0.9-0.6,1.6-1.4,3-0.8
		c1.5,0.7,10.5-3.7,11-5.2c0.1-0.3,0-0.7-0.1-1c-1.3-2.3,0.6-1.7,1.5-1.5c2.4,0.6,4.1,2.3,6.1,3.6c0.7,0.4,1.3,1.5,2.2,0.9
		c0.4-0.2,0.5-1.1,0.5-1.7c0-1.7-1.2-1-2.1-1.2c-1.5-0.4-3-1.1-3.7-2.8c-0.2-0.4,0-1.3,0.2-1.3c1.5-0.5,2.9,0,4.1,0.9
		c0.2,0.2,0.7,0.1,1.1,0.2c0-2.7-3.3-2.3-3.7-4.2c-0.5-2.3,3.1-2.4,3-4.3c-4.4-1.2-8.7-2.1-13-2.5c-0.4,0-0.9-0.4-1.2-0.8
		c-3.4-3.8-7.1-6.9-12.2-8c-0.6-0.1-1.3-0.2-1.4-1c-0.1-1,0.7-1.2,1.4-1.3c0.7-0.1,1.7,0,1.7-1c0-0.8-0.9-1.2-1.6-1.3
		c-1.2-0.2-2.1-1.4-3.6-1c2.4,3.6-0.6,3.7-2.6,3.9c-2.9,0.3-5.7,0.5-8.4,1.9c1.5,0.5,3.2,0.9,4.6,0.4c5.8-2,10.2,1.5,14.9,3.8
		c1.8,0.9,3.4,2.6,3,4.7c-0.8,4,1.4,5,4.5,5c2.3,0,4.4,0.7,6.6,0.9c0.8,0.1,1.5,0.5,1.5,1.4c0,0.9-0.8,1.6-1.4,1.3
		c-3.7-1.7-4.9,1.7-7,3.2c-2,1.4-4.1,2.7-6.4,3.5c-1.8,0.7-3.5,0-3.6-2.4c-0.2-3.3-1.3-4-4.2-1.9c-3.2,2.3-5.4,1.2-6.3-2.7
		c-0.5-2.2-1.5-4.2-2.2-6.3c-1.7-4.6-3.1-9.5-9.9-7.9c-0.7,0.2-1.8-0.6-2.4,0.3c-0.5,0.8,0.3,1.4,0.7,2c1.1,1.7,0.9,2.7-1.3,2.9
		c-1.1,0.1-2.1,0.7-3.2,1c-1,0.3-1.6-0.1-1.9-1.1c-1.1-3.9,0.3-7.3,4.1-9.1c-2.7-5.1-8.4-5.2-12.4-5.4c-3.5-0.2-8.7,2-10.1,7.4
		c3.9,0.2,7.6,0.9,11.2-1.1c1.1-0.6,2.3-0.9,3.6-1c1.9-0.1,2.7,0.3,2.2,2.5c-0.7,2.9-1.5,5.8,0.4,8.7c0.5,0.7,0.6,2.1-0.4,2.7
		c-1,0.7-1.5-0.5-2.2-1c-2.6-1.6-4.7-7.2-8.4-1.1c-0.2,0.3-1.4,0-1.8,0.3c-1.6,1.3-5,0.2-5.2,1.4c-0.8,4.6-2,9.7-0.7,13.9
		C254.7,358.2,256.1,363.3,256.2,368.8z M264.2,323.3c-1.2,1.3-2.4,2.7-5.4,3.3c0.9-1.2,1-1.6,1.3-1.7c1.4-0.7,1.9-2.7,3.8-2.5
		C264.1,322.3,264.3,323.1,264.2,323.3z"/>
	<path fill="#DFDDDF" d="M224.9,349.5l0.5,3.1c0.2-0.2,0.4-0.5,0.4-1.1C225.8,350.6,225.5,350,224.9,349.5z"/>
	<path fill="#E5E5E5" d="M434.1,359.9c-0.2-0.3-0.5-0.5-0.8-0.8c-1.2-1.1-2.3-3.1-3.8-0.1c-0.5,1-2,1.2-2.7-0.2
		c-0.8-1.6-5.2-2.1-1.7-5.2c0.1-0.1-0.3-0.9-0.6-1.2c-0.9-0.8-1.3-1.5-0.1-2.4c1.3-0.9,1-1.9-0.1-2.7c-1.4-1.2-3.2-1.1-4.6-0.5
		c-1.5,0.6,0.1,1.6,0.3,2.4c0.3,1,0.6,2-0.2,2.8c-0.8,0.8-1.6,0.2-2.3-0.4c-1.5-1.4-3.7-2.3-4.8-0.7c-0.8,1.2,1.1,3.1,2.5,4.1
		c1.2,0.9,2.3,1.8,3.9,2.1c0.9,0.1,1.7,0.9,2.6,1.4c0.5,0.3,0.8,0.8,0.4,1.2c-0.2,0.4-0.7,0.7-1.2,0.7c-5.5,0.6-10.4-0.5-14.6-4.3
		c-1-0.9-2.1-2-3.2-1.1c-1.2,1-0.1,2.3,0.4,3.3c2.2,4.2,2.5,9,3.9,13.4c0.5,1.6,0.6,3.3,2.4,3.8c1.9,0.5,3.3-0.1,4.8-1.7
		c3.2-3.2,6.7-6.3,12-7c-0.6-1.4-2.1-2.9-0.1-4.2c1.6-1.1,2.8-1,4.3,0.8c0.9,1,2.3,1.3,3.6,0.8l0.4-3.7
		C434.7,360.4,434.3,360.2,434.1,359.9z"/>
	<path fill="#DFDDDF" d="M412.2,312.7c-1.3-0.7-2.4-1.6-3.9-1.4c-1.2,0.2-2.7-0.6-3.4,0.8c-0.7,1.4,0.4,2.2,1.1,3.3
		c1.2,1.8,2.5,3.7,3.7,5.6c1.9,3.1,5.1,4.5,8.8,4.5c0.9,0,1.8-0.1,2.2-1.1c0.4-1-0.4-1.6-1.1-2.2c-1.2-1.1-2.5-2-3.8-3.1
		c-2-1.7-2.1-4.1-1.1-6.1c1.2-2.4,2.7,0.7,4.4,0.2c-0.9-4.1-12.8-9.6-16.7-7.6c2,1.1,3.8,2.2,5.7,3C412,310,412,310,412.2,312.7z"/>
	<path fill="#DFDDDF" d="M236.8,330.8c4.3-0.6,11.7-5,14.1-7.9c-4.6,1.7-8.6,2.1-12.7,1.9c-3.2-0.2-6,0.4-8.5,1.7
		c-1.4,0.7-2.7,1.6-3.9,2.7c-0.6,0.5-1.2,1.1-1.7,1.7c-0.6,0.7-1.3,1.4-1.9,2.2l0.1,0.8C227.5,334.7,231.9,331.5,236.8,330.8z"/>
	<path fill="#DFDDDF" d="M410.2,327.4c-0.2-0.2-0.5-0.2-0.8-0.2c-0.3,0-0.7,0-1,0c0.1,8.3,1.5,9.8,9.7,9.7c0.5,0,1,0.1,1.5,0
		c1.2-0.3,3.1,0.8,3.5-1.1c0.2-1.4-1.3-2.4-2.5-2.9C417,331.3,413,330.5,410.2,327.4z"/>
	<rect x="408.4" y="327.1" fill="#DFDDDF" width="0" height="0"/>
	<path fill="#DFDDDF" d="M394.1,336.5c3.6,0.5,7.4,0.3,11.1,0.2c0.9,0,2.3-1.3,0.9-1.9c-2.8-1-5.1-4-8.5-2.9
		c-2.1,0.7-3.9,0.6-6.3-1.6C391.9,333.4,391.6,336.1,394.1,336.5z"/>
	<path fill="#DFDDDF" d="M411.4,304.5c1.9-0.8,1.8-1.7,2-2.7c0.5-2.4,0-4.8-0.2-7.2c-0.9,0.2-1.8,0.5-2.8,0.7
		C411.2,298.1,411.7,301.1,411.4,304.5z"/>
	<path fill="#DFDDDF" d="M287.6,390.3c1-2.6,0.8-5.4,0.8-8.1c0-1.5-0.7-2.6-2.2-3.1c-0.8-0.3-1.5,0.1-1.9,0.8
		c-0.4,0.7,0,1.4,0.5,1.5c3.4,0.7,2,2.3,1.1,4.2c-1.5,3.1-0.6,7.7,1.7,9.7C287.1,393.6,287,392,287.6,390.3z"/>
	<path fill="#DFDDDF" d="M287.7,395.3C287.7,395.3,287.7,395.3,287.7,395.3L287.7,395.3C287.7,395.3,287.7,395.3,287.7,395.3z"/>
	<path fill="#DFDDDF" d="M369.1,371.5c-0.1-1.8-2.1-2.6-1.9-4.6c0.3-3,0-6.1,0-9.2c0-0.7,0.1-1.7-0.9-1.7c-0.9,0-1.2,0.8-0.9,1.7
		c0.8,2.6,0.1,5.1-0.3,7.7C364.5,369,366.1,371.1,369.1,371.5z"/>
	<path fill="#DFDDDF" d="M236.7,360.8L236.7,360.8c-0.8,2.9-4.6,0.5-5.6,3.5c2.6,0,4.8,1.3,7.1,2.1c1,0.4,2.4,0.6,2.1-0.9
		C239.8,363.5,240.2,360.5,236.7,360.8z"/>
	<path fill="#DFDDDF" d="M245.5,344.6c-1.1-0.4-2-0.2-2.5,0.9c-0.6,1.3,0.4,1.9,1.3,2.3c2.2,0.9,4.5,1.6,7.2,2.5
		C250.9,346.4,248.1,345.6,245.5,344.6z"/>
	<path fill="#DFDDDF" d="M328.3,355.4c-3,1.3-4.4-1.3-7.4-2c0.6,1,1.3,1.7,2,2.4c2.1,1.9,4.5,2.6,6.8,3.5l0,0v0c0,0,0,0,0,0
		C329.4,357.9,330,354.7,328.3,355.4z"/>
	<path fill="#DFDDDF" d="M265,332.7c0.7,0.2,0.8-0.7,0.9-1.4c0-1.2-0.2-2.2-1.5-2.6c-0.9-0.1-1.4,0.3-1.3,1
		C263.3,331,263.6,332.4,265,332.7z"/>
	<path fill="#DFDDDF" d="M411.7,399.8c0.6-0.2,1.6-0.2,1.5-1.4c0-0.8-0.8-0.8-1.4-0.8c-0.7,0-1.5,0-1.7,0.9
		C410,399.5,410.7,399.7,411.7,399.8z"/>
	<path fill="#DFDDDF" d="M233.4,357.9c-0.6-0.9-1.2-1.8-2.2-3.4C231,358,231,358,233.4,357.9z"/>
	<path fill="#DFDDDF" d="M236,359.7c-0.1,0-0.4,0.3-0.4,0.4c0.1,0.6,0.6,0.6,1.1,0.7C236.6,360.3,236.6,359.8,236,359.7z"/>
	<rect x="236.7" y="360.8" fill="#DFDDDF" width="0" height="0"/>
	<path fill="#DFDDDF" d="M329.7,359.3L329.7,359.3c0,0.2,0.1,0.5,0.2,0.7c0.1,0.2,0.2,0.4,0.5,0.4c0.1,0,0.4-0.3,0.4-0.4
		C330.7,359.4,330.2,359.4,329.7,359.3C329.7,359.3,329.7,359.3,329.7,359.3z"/>
	<path fill="#DFDDDF" d="M408.4,327.1L408.4,327.1c-0.1-0.1-0.2-0.1-0.3-0.2C408.3,327,408.4,327,408.4,327.1z"/>
	<path fill="#DFDDDF" d="M345.7,485.9c-3.2-3.5-7.6-2.9-11.7-3.2c-3.3-0.3-7,0.1-8-5.6c-1.2,3.7-1.2,5.8,1.6,7.3
		c2.1,1.1,4.4,1.7,6.1,3.5c0.5,0.6,1.5,1.3,2.3,0.6c0.9-0.7,0-1.6-0.2-2.4c-0.1-0.4-0.5-0.9,0.6-2c3.7,5.9,9,9.2,16.5,7.9
		c-1.1-1.4-2.2-2.6-3-4C348.9,486.4,346.8,487.2,345.7,485.9z"/>
	<path fill="#DFDDDF" d="M378.8,467c-2.5,1.4-4.7,4.4-8.2,1.9c-0.2-0.1-0.9,0.1-1,0.3c-1.2,3.8-5.5,3.4-7.8,5.6
		c-0.7,0.7-2.5,0.8-1.8,2.3c0.6,1.1,1.8,0,2.7-0.1c3-0.3,6.1-1,8.5,1.6c0.8,0.8,1.4,2.1,2.6,1.8c1.4-0.4,0.8-1.9,0.8-2.9
		c0-3.3-0.3-6.7,4.3-7.3c1.2-0.2,1-1.6,1.4-2.4C380.2,466.6,379.7,466.5,378.8,467z"/>
	<path fill="#DFDDDF" d="M266.8,473.3c-1,0.1-2.5,0.2-2.9-0.3c-2.3-3.7-5.3-1.7-8.1-1.2c-0.7,0.1-1.6,0.4-1.3,1.4
		c0.3,0.8,1.2,0.9,1.9,0.6c2.9-1.2,5.1,0.1,7.7,1.4c6.1,3.3,11.7,4.8,16.1-1C275.3,474.3,271.2,473,266.8,473.3z"/>
	<path fill="#DFDDDF" d="M352.8,478.9c-1.5,0.7-3,1.1-4.5,1.7c-0.8,0.3-2,0.3-1.8,1.5c0.1,1.2,1.2,1,2.1,1c3,0,4.9,1.9,5.8,4.3
		c0.6,1.7,0.9,3.6,2.4,5.3c2.3-4.2,1.7-7.9,0.2-11.9C356,478.6,354.5,478.1,352.8,478.9z"/>
	<path fill="#DFDDDF" d="M293.1,480.9c-2.1-0.3-4.1-0.9-5.9-2.1c-1.3-0.9-2.8-1.1-4.3-0.9c-0.6,0.1-1.4-0.1-1.6,0.7
		c-0.2,1,0.6,1.2,1.3,1.5c1.6,0.7,3.7,0.6,4.5,2.4c0.9,2.3,2.6,2.3,4.2,2.2c0.7,0,1.1,0,1.5,0c1.3-0.1,3.2,0.5,3.5-1.2
		C296.5,481.4,294.5,481.1,293.1,480.9z"/>
	<path fill="#DFDDDF" d="M305.5,480c-3.5,0.4-6.8-0.2-8.6-4c-0.4-0.8-1.7-1.4-2.9-0.5c7.6,8.2,8.4,8.5,17.6,8
		C309.6,481.4,308.3,479.7,305.5,480z"/>
	<path fill="#DFDDDF" d="M328.8,465.6c0.6-0.2,0.3-0.8,0.3-1.3c-0.1-2.8-1.9-4.6-4-6.6c-1.9,3.8,1.5,5.4,2.4,7.8
		C327.5,465.7,328.4,465.7,328.8,465.6z"/>
	<path fill="#DFDDDF" d="M319.2,451.6c-0.5-2.1-1.5-3.7-3-4.9c-0.9-0.7-1.9-1.3-3-1.8c0,0,0,0,0,0
		C314.7,447.5,315.8,450.5,319.2,451.6z"/>
	<polygon fill="#DFDDDF" points="319.2,451.6 319.2,451.6 319.2,451.6 	"/>
	<path fill="#DFDDDF" d="M250.8,465.4c-0.1,0.2-0.3,0.4-0.2,0.6c0.1,0.1,0.4,0.3,0.5,0.2c0.1-0.1,0.2-0.4,0.3-0.5l0,0
		C251.2,465.5,251,465.4,250.8,465.4z"/>
	<path fill="#DFDDDF" d="M319.5,451.7c-0.1-0.1-0.2-0.1-0.3-0.2l0,0C319.3,451.6,319.4,451.7,319.5,451.7z"/>
	<path fill="#D8D8D8" d="M305.8,409.8c-4.2,3.3-7.7,3.9-12.1-0.2c-1.5-1.4-3.7-3.3-6.9-3.6c1,1.8,1.8,3.1,2.8,4.7
		c-1.8,0.3-2.3-0.6-2.8-1.5c-1.9-3.3-3.9-6.2-8.5-4.4c-0.9,0.3-2.3-1.1-2.9,0.5c-0.4,1.2,1,1.9,1.6,2.7c4,4.9,4,4.9-1.7,6.9
		c2.8,0.6,5.8,0.4,8.4,2c0.3,0.2,0.9-0.2,1.3-0.5c3.2-2.2,5.5-2.1,8,0.5c2.9,3,2.9,3,6,1c3.7-2.5,7.2-1.7,10.4,2.2
		c0.4,0.5,0.7,1.1,1.4,1c0.8-0.2,0.7-0.9,0.7-1.5c0-2.2,0.1-4.5,0-6.7C311.5,408.7,309.1,407.3,305.8,409.8z"/>
	<path fill="#D8D8D8" d="M380.7,456c-0.3-3.3-2.3-6.4-0.2-9.9c0.8-1.4,0.5-3.6-1.1-4.7c-1.5-1-2.6,0.1-3.9,1.2
		c-1.5,1.3-8.3-0.4-9.9-1.7c-3-2.4-5-6.1-9-7.2c-0.9-0.3-1.8-1.4-2.6-0.2c-0.6,1.1-0.8,2.6,0.3,3.5c4,3.4,7.1,7.8,12,10
		c0.9,0.4,1.7,1,2.8,0.3c4.2-2.4,7.3-0.9,7.8,3.8C377.2,453.7,378.3,455.3,380.7,456C380.7,456.1,380.7,456,380.7,456L380.7,456z"/>
	<path fill="#ECEAEB" d="M321.9,399.4c-4.2,0.8-8.5,0.2-12.7,0.4c-0.6,0-1.3,0-1.6,0.7c-0.2,0.7,0.3,1.2,0.8,1.5
		c1.6,1,3.2,1.9,4.9,2.8c1,0.6,9.6-1.2,10.2-2.1c0.2-0.3,0.2-0.7,0.2-1.1C323.5,400.5,323.4,399.1,321.9,399.4z"/>
	<path fill="#D8D8D8" d="M350.3,434.6c-2.7-1.2-3.3-3.1-2.7-5.9c0.5-2.2-0.6-2.8-2.8-2.1c-2.2,0.8-4.3,2.7-7.4,1.7
		c0.2,0.4,0.3,0.9,0.7,1.2c3.3,2.9,8.1,3.5,11.2,6.8c0.2,0.2,1.3,0,1.6-0.3C351.4,435.5,350.9,434.8,350.3,434.6z"/>
	<path fill="#ECEAEB" d="M245.8,403.8c0.7,2.4,1.5,5.1,4.3,6.1c1.7,0.6,2.5,0,2.1-1.7c-1.1-4.7-5.3-7.7-6.8-12.3
		c0,0.1-0.1,0.3-0.1,0.4C244.6,399,245.1,401.5,245.8,403.8z"/>
	<path fill="#D8D8D8" d="M400.5,437.8c-2-0.7-4-1.4-5.7-2.6c-0.8-0.5-1.5-1-2,0.4c-1.3,3.5,0.4,6.2,4.6,6.3c0.8,0,2.2,0,3.4-0.7
		c0.9-0.5,2-1,2-2C402.8,437.6,401.3,438.1,400.5,437.8z"/>
	<path fill="#ECEAEB" d="M271.7,397.6c-2.9-0.1-4.9,1.9-5,5.4c0.2,1.1,0.5,2.8,0.8,4.5c0.1,0.7,0.9,1.4,1.1,1.1
		c1.1-1.6,3.5-2.2,3.5-4.4c0-1.8-0.6-3.6,0.6-5.3C273.4,397.8,272.4,397.7,271.7,397.6z"/>
	<path fill="#CFCDCF" d="M421.4,458.8c0.9,0.7,1.8,1.3,2.7,1.9l0.2-1.9C423.3,458.8,422.4,458.8,421.4,458.8z"/>
	<path fill="#CFCDCF" d="M360.5,408.8c-0.5,0.3-1,0.5-1.5,0.8v0c0,0.5,0,1.2,0.3,1.7c0.1,0.2,0.3,0.4,0.7,0.4c0.1,0,0.3,0,0.5-0.1
		c3.5-1.4,7.1-2.5,10.8-3.5C367.4,406.6,364,408.2,360.5,408.8z"/>
	<path fill="#CFCDCF" d="M374.7,412.8c-2.5-0.3-5-1.7-8.1-0.4c2.1,2.3,5.2,1,7,2.9c0.8,0.8,1.4,1,2-0.2
		C376.3,413.9,375.9,412.9,374.7,412.8z"/>
	<path fill="#CFCDCF" d="M327.9,403.6c3.2-0.6,6.7,0.8,10.4-2C334.2,401.8,331,402.3,327.9,403.6z"/>
	<path fill="#ECEAEB" d="M241.5,398.6c-0.5-0.1-1,0.4-0.9,0.9c0.3,1.6,1.6,2,3.3,2.3C243.9,399.8,242.9,399,241.5,398.6z"/>
	<path fill="#ECEAEB" d="M359,409.6c0.5-0.3,1-0.5,1.5-0.8c-0.1-1.1-0.5-2-1.7-2.1c-0.6-0.1-1,0.2-1.1,0.7c-0.1,0.3-0.1,0.6-0.1,0.8
		c0,0.1,0,0.2,0.1,0.3c0,0.1,0.1,0.2,0.2,0.3C358,409.3,358.4,409.5,359,409.6z"/>
	<path fill="#ECEAEB" d="M259.1,383.3c-1.8,0-3.1,0-4.4,0l0,0C256.6,385.9,256.6,385.9,259.1,383.3z"/>
	<path fill="#CFCDCF" d="M391.4,432.2c-0.4,0-0.8,0.3-0.6,0.7c0.1,0.2,0.5,0.4,0.9,0.6c0.2-0.4,0.4-0.6,0.5-0.9
		C392,432.5,391.7,432.3,391.4,432.2z"/>
	<path fill="#ECEAEB" d="M264,322.3c-1.9-0.3-2.4,1.8-3.8,2.5c-0.3,0.1-0.4,0.5-1.3,1.7c3-0.6,4.2-2,5.4-3.3
		C264.3,323.1,264.1,322.3,264,322.3z"/>
	<g>
		<polygon fill="#BCBEC0" points="428.4,293.2 443.4,283.7 429,294 		"/>
	</g>
	<g>
		<polygon fill="#BCBEC0" points="224.4,290.1 214.4,283.7 224.9,289.2 		"/>
	</g>
</g>
<g id="Hashbrown">
	<g>
		<path fill="#DE7B32" d="M248.1,250.8c0.5-11.6,4.7-20.6,16.5-24.7c3-1,4.4-4.5,7.7-5.2c3.5,4.7,3.5,4.7,8.7-0.1
			c-2.2-2.2-5-2.6-8-2.5c0.5-5.2,5.3-7.6,8.5-6.9c8.8,2.1,13.7-3.3,19.3-7.8c0,0,0,0.5,0,0.5c0,2.4-0.5,5.8,3,5.2
			c4.9-0.8,11.1,4.7,14.7-2.8c3.6-2.2,4.8-7.9,10.4-7.4c0.7,3.6-3,5.6-3.1,8.9c-0.1,0.2-0.2,0.4-0.3,0.6c0.1-0.2,0.2-0.4,0.4-0.6
			c1.8,2.7,4.1,2.1,6.8,1.7c3.1-0.5,6,1.2,5.7,4.8c-0.2,3-2,3.9-4.9,1.7c-1.3-1-2,1.7-3.3,2.2c-0.4,0-0.9,0-1.3,0
			c-1.8-4.9-12.6-5.9-17.8-1.5c-8.4,0.3-3.2,9.6-9.5,12.1c2.7,0.9,4.1,1.6,5.5,1.7c9,0.5,9,0.5,6.6,9.1c-1.1,3.8-2.8,6.7-7.4,6.3
			c1.6,3.2,2.8,6.5-0.8,9.3c-0.4,2.2-1.6,4.7-3.9,4c-3.5-1.1-3.5,2.1-5.2,3.2c-0.5,0-1.1-0.1-1.6-0.1c-1.8-1.2-3.6-2.4-5.4-3.4
			c-6.4-3.8-10.3-2.1-11.8,5.2c-0.4,1.9-0.2,3.8-0.3,5.8c-5.9,0.7-3.9,5.3-4.3,8.7c-2.6-1.1-5.4-2.6-7.9,0.2
			c-1.2,1.3-0.3,2.7,0.4,3.9c1.6,2.9,4,2.8,6.7,2c0.2-0.1,0.5-0.1,0.7-0.1c0,2,0,4-0.1,6c-2.3,3.2-8.5,5.8-1.4,10.2
			c-0.6,1.4,2.5,4.1-1.4,4.4c-0.7-0.2-1.8-0.3-2-0.7c-2.5-6.7-6.8-11-13.7-13.8c-3.8-1.6-7.4-5.3-3.6-10.6c2.8,1.2,2.2,5.3,5.4,6.4
			c0.5-1.2,1.1-2.3,1.3-3.4c0.6-3.6-2.9-5.1-4.3-7.7c-0.4-0.7-1.8,1-2.5,1.9c-2.1-1.4-4,2.7-5.4,0.7c-1.1-1.5-2.4-4-1.3-6.1
			c2-3.7,5.7-2.2,8.4-1.6c3.2,0.7,6.1,1.4,6.7-2.5c0.6-4.2,4.1-4.8,6.6-6.8c1,0.2,1.9,0.2,2.9,0.5c2,0.5,2.1,6.2,5,2.8
			c2.6-3.1-0.4-5.7-3.4-7.3c-1.1-0.5-2.1-1.1-3.2-1.6c-1.5-5-1.9-9.4,4.4-11.5c1.6-0.5,1.5-2.3-0.1-3.4c0.1-1.5,0.1-2.9,0.2-4.4
			c3.9-0.1,5.9-1.1,2.4-4.9c-3.5-3.8-7.5-3-11.2,2.1c0,0.4,0,0.9,0,1.3c-3.1,1.7-6.2,3.4-9.8,5.3c3.1,2.7,5,6.6,9.8,6.5
			c0.5,1.5,1,2.9,1.5,4.4C258.7,251.3,253.4,252.4,248.1,250.8z M299.4,255.2c5-4.1,1.4-9.9,2.8-14.6c6.1-2.9,0.3-5.2-0.9-6.6
			c-1.5-1.7-4.3-2.5-3.1-5.5c1.4-3.4,0-4.2-3.2-4.4c-2.5-0.1-4.5-0.8-4.9,3c-0.3,3-1.7,6-2.6,8.9c-3.2-1.6-4.1,4.2-8.3,2.1
			c-2.2-1.1-2,3.1-1.9,5c0.2,2.5,0.2,5.9,2.9,6.7c2.4,0.7,2.6-2.1,2.9-4c0.4-2.7,2.1-4.2,4.3-5.4c4-1.5,8-1.6,11.9,0.1
			c0,1.5-0.1,2.9-0.1,4.4c-2.5-0.4-5-2.2-7.4,0.5c-1.2,1.4-4.2,2.9-1.9,4.3C293,251.7,294.7,256.3,299.4,255.2z M288,226.7
			c0.2-0.4,0.6-0.9,0.5-1.2c-0.1-0.3-0.8-0.4-1.2-0.6c-0.2,0.4-0.6,0.9-0.5,1.2C286.9,226.4,287.5,226.5,288,226.7z"/>
		<path fill="#CA6036" d="M265.6,261c-2.5,2-6,2.6-6.6,6.8c-0.6,3.9-3.5,3.2-6.7,2.5c-2.7-0.6-6.4-2.1-8.4,1.6
			c-1.1,2.1,0.2,4.6,1.3,6.1c1.4,2,3.3-2.1,5.4-0.7c0,0.9,0.1,1.9,0.1,2.8c-3.8,5.2-0.2,9,3.6,10.6c6.8,2.8,11.2,7.1,13.7,13.8
			c0.2,0.4,1.3,0.5,2,0.7c0,1.2,0.3,2.3,1.5,2.9c2.8,5,6,6.9,10.3,1.5c0.5,0,1,0,1.4,0.1c-1.1,3.5,3.8,5,2.7,8.5
			c-0.3,1-3.5,2.9,0.5,3.1c1.7,0.1,3.6,0,3.8-2.3c0.2-2.1,0.2-4.3,0.2-6.5c2.8-0.3,4.1-3.9,7.3-3.2c-1.1,4.4,2.8,8.7,0.9,12.7
			c-2.6,5.3,1.2,6.4,4.3,6.3c5-0.2,7.6,2.2,9.6,6.1c-3.2,0.4-6.4,0.9-9.7,1.3c-4.6-3.2-10-3-15.3-3.2c-11.9-4.3-23.7-8.6-34.8-14.8
			c-1.5-0.8-3.3-1.1-3.6-3.2c-6-5.4-5.8-14.9-13.3-20.7c0,3.7,0,6.5,0,9.4c-5.6-3.1-7.4-9.6-12.1-13.6c-0.1-5.8,4.6-3.3,6.8-3.2
			c5,0.3,6.3-1.8,7.3-6.3c1.8-8,0-17.1,6.5-23.8c0.6-0.9,1.1-1.8,1.7-2.7c0.6-0.9,1.3-1.9,1.9-2.8c5.3,1.6,10.6,0.5,15.9,0
			c0.5,2-2.7,3.9-0.1,5.9C264.5,258.2,265,259.6,265.6,261z M294.9,330.2c0.2,0.1,0.4,0.2,0.6,0.3
			C295.4,330.5,295.1,330.3,294.9,330.2c-0.4-0.5,0.7-2.1-1.1-1.6C294.2,329.2,294.6,329.7,294.9,330.2z"/>
		<path fill="#F6B154" d="M411.8,236c6.3,11.1,14.9,20.9,17.8,33.8c1,4.3-1.6,8-2.6,11.9c-3.8-1.9-7.6-0.1-11.4,0c0-1.5,0-2.9,0-4.4
			c0.1-0.4,0.1-0.8,0.2-1.3c0.9-0.1,1.8-0.1,2.7-0.2c2.4,0.2,4.7-0.3,4.9-3c0.1-2.4-1.3-4.1-4-5c-3.7-1.3-7.7-2.9-6.7-8.2
			c1-1,2-1.9,3-2.9c0.8-0.2,2,0.2,2-1.2c0-0.3-0.6-0.9-0.9-0.9c-1.4,0-1.1,1.2-1.2,2c-1.9,0.1-2.8,1.1-2.9,3c-4.2,1.9-2.6,5.7-3,8.8
			c-0.9-0.1-1.8-0.2-2.7-0.3c-4.1-2.7-1.6-6.6-1.7-10c0.8-1.9,3.3-3.3,1.5-5.9c2-1.4,5.8-1.4,5.2-4.8c-0.6-3.4-4.1-2.3-6.5-2.6
			C403.9,239.3,405.4,235.9,411.8,236z"/>
		<path fill="#F08F2B" d="M411.8,236c-6.4-0.1-7.9,3.3-6.4,8.9c-1.8,0.2-4-0.4-5.2,2.5c3.3,0.2,4.7,2.9,6.6,4.9
			c1.9,2.5-0.6,4-1.5,5.9c-4.8-0.6-9.6-2.7-14.4,0.1c-0.7-3.3,0.1-6.8-1.4-10.1c-0.8-1.7,0.3-3.3,1.2-4.8c0.6-0.9,1.5-1.2,2.4-0.2
			c0.8,0.8,0.5,3.6,2.7,1.9c1.2-0.9,0.6-2.6-0.2-4c-1.4-2.3-2.8-4.7-4.7-8.1c3,0.9,5.4,2.3,6.2-0.2c1-3.3-2.5-1.9-3.8-2.8
			c-2.8-1.9-5.6-3.8-8.5-5.8c0-2.8,0-5.7,0-8.5c0.5,0,0.9,0,1.4-0.2l0,0.1c0.3,2.6-0.7,5.8,3.9,6.9c-0.3-2.6-0.6-4.7-0.9-6.7
			c2.1-0.6,3.8,0.1,5.4,1.4c-2.7,0.5-2.5,1.9-0.9,3.3c0.6,0.5,2.4,0.9,2.5,0.6c1-1.5-1.5-2-1.3-3.4c6.1,0.5,10.1,3.6,12.2,9.3
			c0.1,1.8,1.2,2.8,2.8,3.3C411.4,231.8,411.8,233.8,411.8,236z M402.4,235.9c1-1,3.7-0.6,3.7-3.1c0-1.8-1.5-3.3-3.2-3.4
			c-2.8-0.2-2.1,2.7-2.9,4.2C399.4,235,400.5,235.7,402.4,235.9z"/>
		<path fill="#F08F2B" d="M325.8,208.1c0.2-3.3,3.8-5.3,3.1-8.9c0.4-0.5,0.8-1,1.2-1.5c0.3-0.3,0.6-0.4,1-0.3
			c9.1-0.7,13.3,5.2,16.9,12.1c-1.1,1.6-2.1,3.1-3.2,4.7c-3.8,3.5-4.4,9.8-0.5,11.9c2.9,1.6,1.7,3.6,2.1,5.5
			c-2.3,0.4-2.9-1.9-4.4-2.8c-0.7,0.3-2.9-0.7-1.5,1.6c-0.6,4-2.7,4.7-6,2.8c5.1-6.9,0.8-10.9-4.5-14.7c1.4-0.4,2-3.1,3.3-2.2
			c2.9,2.2,4.7,1.3,4.9-1.7c0.3-3.5-2.6-5.3-5.7-4.8C329.9,210.3,327.6,210.8,325.8,208.1L325.8,208.1z"/>
		<path fill="#F59F35" d="M415.6,281.7c3.8-0.1,7.6-2,11.4,0c0.9,1.4,1.8,2.9,2.7,4.3c-0.8,2.5-1.2,5-0.1,7.5
			c-0.3,0.5-0.6,0.9-0.9,1.4c-2.5-0.1-3.1-2.2-4-3.8c-1.1-2.1-2.4-3.7-5.1-3.3c-3.2,0.5-2.5,3.1-2.6,5.2c-0.1,2.2,0.3,4.6-2.9,5
			c-1.3-3-5.1,2.3-5.9-1.7c-0.7-3.3-1-6.6-1.4-10c2.7,1,4.4,4.5,8.4,3.3c-1.9-2.7-3.7-5.2-5.5-7.7c0.9-0.1,1.8-0.2,2.8-0.2
			C413.5,281.6,414.5,281.6,415.6,281.7z"/>
		<path fill="#F6B154" d="M348.1,209.5c-3.6-6.9-7.9-12.9-16.9-12.1c4.1-3.4,8.7-2.6,13.2-1.2c7.6,2.4,15.2,4.9,22.8,7.4
			c0,0-0.5,0.5-0.5,0.5c-3.1-0.3-5.7,2.5-8.9,1.6c-5.1-1.5-5.7,1.5-5.7,5.2C350.8,210.4,349.4,209.9,348.1,209.5z"/>
		<path fill="#F6B154" d="M330.1,197.7c-0.4,0.5-0.8,1-1.2,1.5c-5.6-0.6-6.7,5.2-10.4,7.4c-1.5-2.2-5-3.6-6-2.3
			c-4.3,5.4-7.8,1.4-11.7,0c0,0,0-0.5,0-0.5c4.1-4.8,10.2-0.5,15.2-3.6C319.8,197.7,325.4,198.4,330.1,197.7z"/>
		<path fill="#AF3230" d="M273.1,218.3c2.9,0,5.7,0.4,8,2.5c-5.2,4.8-5.2,4.8-8.7,0.1C272.5,220,272.8,219.2,273.1,218.3z"/>
		<path fill="#F6B154" d="M371.4,206.6c4.8,0.2,9.5,0.6,11.9,5.8l-0.3,0.4c-3.8-1.6-7.7-3.1-11.5-4.7c-0.1-0.4-0.2-0.7-0.4-1
			L371.4,206.6z"/>
		<path fill="#F59F35" d="M389.1,215.7c0.3,2.1,0.5,4.1,0.9,6.7c-4.5-1-3.6-4.3-3.9-6.9C387.1,215.6,388.1,215.7,389.1,215.7z"/>
		<path fill="#F6B154" d="M367.2,203.5c1.4,1,2.8,2.1,4.2,3.1c0,0-0.4,0.5-0.4,0.5c-1.9-0.4-3.8-0.8-4.3-3.1L367.2,203.5z"/>
		<path fill="#DE7B32" d="M246.2,253.6c-0.6,0.9-1.1,1.8-1.7,2.7C244.3,254.9,244.9,254.1,246.2,253.6z"/>
		<path fill="#F6B154" d="M409.9,230.1c-1.7-0.5-2.7-1.5-2.8-3.3C408.5,227.5,409.7,228.4,409.9,230.1z"/>
		<path fill="#F6B154" d="M386.1,215.5c-0.5,0.1-0.9,0.2-1.4,0.2c-0.1-0.5-0.2-0.9-0.4-1.4l0.2-0.1C385,214.6,385.6,215,386.1,215.5
			z"/>
		<path fill="#F6B154" d="M383.3,212.4c0.4,0.6,0.8,1.1,1.2,1.7c0,0-0.2,0.1-0.2,0.1c-0.4-0.5-0.9-1-1.3-1.5L383.3,212.4z"/>
		<path fill="#F6B154" d="M414.2,297.9c3.1-0.4,2.8-2.8,2.9-5c0.1-2.1-0.7-4.7,2.6-5.2c2.6-0.4,4,1.2,5.1,3.3c0.9,1.7,1.5,3.8,4,3.8
			c-3.1,7.9-8,14.2-16,17.7l-0.4-0.3C412.9,307.5,413.5,302.7,414.2,297.9z"/>
		<path fill="#DE7B32" d="M406.4,317.7c-4.7,0.5-7.9,5.2-12.9,4.9c0-0.9-0.1-1.8-0.1-2.8l0,0c1.1-0.4,1.1-0.9,0-1.3
			c0-0.5,0-1.1,0-1.6c1.4,0,3.3,0.4,3.9-1.2c3-8.5,6.2-4.9,9.4-0.2c-0.1,0.4-0.1,0.8,0,1.3C406.6,317.1,406.5,317.4,406.4,317.7z"/>
		<path fill="#F6B154" d="M406.7,316.7c0-0.4,0-0.8,0-1.3c0.9-0.2,1.7-0.3,2.6-0.5l0.2,0.2C408.8,316.2,408,316.9,406.7,316.7z"/>
		<path fill="#F6B154" d="M411.3,314.2c-0.6,0.4-1.2,0.7-1.8,1.1c0,0-0.2-0.3-0.2-0.2c0.5-0.4,1-0.8,1.6-1.2L411.3,314.2z"/>
		<path fill="#F6B154" d="M412.7,312.6c-0.5,0.5-0.9,1-1.4,1.6c0,0-0.4-0.4-0.4-0.4c0.4-0.5,0.9-1,1.3-1.5L412.7,312.6z"/>
		<path fill="#DE7B32" d="M312.6,334.6c-2-3.9-4.6-6.3-9.6-6.1c-3.1,0.1-6.9-1-4.3-6.3c2-4.1-1.9-8.4-0.9-12.7
			c-0.2-1.2-0.2-2.5-0.8-3.5c-4-7.5-1.7-11.8,6.6-12.5c0,1.5,0.1,2.9,0.1,4.4c-0.8,0.4-2.4,1.1-2.4,1.2c2.3,5.8,0.4,11.9,1,17.8
			c0.4,3.9,2.1,7.6,7.2,7.5c1.3,5,9.4,4.9,8.7,11.5c0,0,0.1,0.5,0.1,0.5C316.5,335.7,314.6,335.2,312.6,334.6z"/>
		<path fill="#AF3230" d="M236,303.2c0-2.8,0-5.7,0-9.4c7.5,5.8,7.2,15.3,13.3,20.7C242.7,313.3,239.3,308.3,236,303.2z"/>
		<path fill="#F08F2B" d="M303.7,293.5c-8.4,0.7-10.7,5-6.6,12.5c0.5,1,0.5,2.3,0.8,3.5c-3.2-0.8-4.6,2.8-7.3,3.2
			c-4.3-3.1-2.3-9-5.4-12.9c-0.7-0.9,1.5-5.1,3.4-6.7c2-1.7,1.5,3.4,4.1,2.5c1.9-3.5,1.6-7.3,1.4-11.1c-0.1-1.9-1.3-2.7-2.9-2.5
			c-2.2,0.2-1.8,1.8-1.3,3.3c0.4,1.1,0.7,2.3-1.4,3.3c-1-2.4-1.8-5.1-5.3-5.7c7.7-5.6,7.7-5.6,2.8-8.5c0.9-5.4,5.1-8.4,8.6-11.8
			c0.5,0,1.1,0.1,1.6,0.1c1.9,1.6,3.1,4.1,5.9,4.5c-0.4,2.7,1.2,7.6-4.7,4.6c-1.7-0.9-3.5-2.8-5-0.4c-1.2,1.9-1,4.3,0.6,6.2
			c1.8,2.1,2.9,4.3,3.7,6.9c0.9,3,3.6,4.3,6.9,3.2l0,0C303.7,289.5,303.7,291.5,303.7,293.5z"/>
		<path fill="#F08F2B" d="M305.5,255.4c3.6-2.8,2.4-6,0.8-9.3c4.5,0.3,6.3-2.5,7.4-6.3c2.4-8.6,2.4-8.5-6.6-9.1
			c-1.4-0.1-2.7-0.8-5.5-1.7c6.3-2.6,1.1-11.8,9.5-12.1c1.6,2.4,3.4,4.6,3.1,7.9c-0.3,3.4,1.6,4.6,4.5,2.9c6-3.4,7.9-1.8,6.3,4.8
			c-0.2,1,0.5,2.3,0.9,3.5c-2.9,1.8-9.1,0.8-5.9,7.4c0,0.4,0,0.9,0,1.3c-5.9-0.2-4.1,4.3-4.5,7.5c-6.9,3.1,1.7,5.9,0.1,8.9
			c-1,0-2.1,0-3.1,0C310.8,258.3,310.7,253.8,305.5,255.4z"/>
		<path fill="#F59F35" d="M325.9,236c-0.3-1.2-1.1-2.4-0.9-3.5c1.5-6.6-0.3-8.2-6.3-4.8c-3,1.7-4.8,0.4-4.5-2.9
			c0.3-3.3-1.5-5.5-3.1-7.9c5.2-4.4,16-3.4,17.8,1.5c2.6,4.6-0.4,10.4,3,14.8C331.8,238.4,329.2,237.9,325.9,236z"/>
		<path fill="#CA6036" d="M294.8,262.4c-3.5,3.5-7.7,6.5-8.6,11.8c-2.2,1.9-4.2,4-7.3,4.4c-0.6-2.9,0.9-6.3-1.7-8.8
			c0.1-1.9-0.1-3.9,0.3-5.8c1.5-7.3,5.4-9,11.8-5.2C291.2,260.1,293,261.3,294.8,262.4z"/>
		<path fill="#F6B154" d="M305.5,255.4c5.2-1.6,5.3,2.9,6.9,5.7c0.2,5.4-0.2,10.9,1.5,16.1c-4.3,4.3-4.8,0.2-5.7-2.7
			c-1.6-5.5-2.7-7.1-6-7.6c-2.8-0.4-4-2.9-5.9-4.5c1.7-1.1,1.7-4.3,5.2-3.2C303.9,260.1,305,257.6,305.5,255.4z"/>
		<path fill="#CA6036" d="M299.4,240.6c-4-1.7-7.9-1.6-11.9-0.1c0-1.5,0-2.9,0-4.4c0.9-3,2.3-5.9,2.6-8.9c0.4-3.8,2.4-3.1,4.9-3
			c3.1,0.2,4.5,0.9,3.2,4.4c-1.2,3,1.6,3.8,3.1,5.5c1.1,1.3,7,3.7,0.9,6.6C301.3,240.6,300.4,240.6,299.4,240.6z"/>
		<path fill="#F08F2B" d="M271.4,308.1c-1.2-0.6-1.4-1.7-1.5-2.9c3.9-0.4,0.9-3,1.4-4.4c0-4,3-5.6,5.9-7.3c0.5-0.5,1-1,1.5-1.5l0,0
			c3.5,0.2,4.3,2.4,4.3,5.4c0,4.1,0,8.2,0,12.3c-0.5,0-1-0.1-1.4-0.1C278.3,309.2,274.8,308.7,271.4,308.1z"/>
		<path fill="#F08F2B" d="M264,256.7c-2.7-2,0.6-4,0.1-5.9c-0.5-1.5-1-2.9-1.5-4.4c-3.4-3.9-0.2-7.9,0-11.8c0-0.4,0-0.9,0-1.3
			c0.5-0.1,1-0.1,1.5-0.2c3.3,1.6,1.5,8.1,7.2,7.3c1.6,1.1,1.6,2.9,0.1,3.4c-6.4,2.1-6,6.5-4.4,11.5
			C265.9,255.8,264.9,256.3,264,256.7z"/>
		<path fill="#F08F2B" d="M287.5,236.1c0,1.5,0,2.9,0,4.4c-2.2,1.2-3.9,2.8-4.3,5.4c-0.3,1.9-0.5,4.7-2.9,4
			c-2.7-0.8-2.7-4.2-2.9-6.7c-0.2-1.9-0.3-6.1,1.9-5C283.4,240.3,284.4,234.5,287.5,236.1z"/>
		<path fill="#F08F2B" d="M299.4,255.2c-4.7,1-6.3-3.6-9.4-5.4c-2.3-1.4,0.7-2.9,1.9-4.3c2.4-2.8,4.9-0.9,7.4-0.5
			C297.6,248.4,299.2,251.8,299.4,255.2z"/>
		<path fill="#F6B154" d="M331.9,233.3c-3.5-4.4-0.4-10.2-3-14.8c0.4,0,0.9,0,1.3,0c5.3,3.7,9.6,7.8,4.5,14.7
			C333.7,233.2,332.8,233.2,331.9,233.3z"/>
		<path fill="#CA6036" d="M300.9,204.2c3.8,1.4,7.4,5.5,11.7,0c1-1.3,4.5,0.2,6,2.3c-3.6,7.5-9.8,2-14.7,2.8
			C300.3,210,300.9,206.5,300.9,204.2z"/>
		<path fill="#CA6036" d="M262.6,234.6c-0.2,3.9-3.4,7.9,0,11.8c-4.8,0.1-6.7-3.7-9.8-6.5C256.3,238,259.4,236.3,262.6,234.6z"/>
		<path fill="#F59F35" d="M264,256.7c1-0.5,1.9-1,2.9-1.4c1.1,0.6,2.1,1.1,3.2,1.6c3.1,1.6,6,4.3,3.4,7.3c-2.9,3.4-3-2.3-5-2.8
			c-0.9-0.2-1.9-0.3-2.9-0.5C265,259.6,264.5,258.2,264,256.7z"/>
		<path fill="#CA6036" d="M272.9,284.6c-0.2,0-0.5,0-0.7,0.1c-2.7,0.9-5.2,1-6.7-2c-0.7-1.3-1.6-2.6-0.4-3.9
			c2.5-2.7,5.2-1.2,7.9-0.2c0,0,0,0,0,0C272.8,280.6,271.5,282.6,272.9,284.6L272.9,284.6z"/>
		<path fill="#CA6036" d="M264.1,233.1c-0.5,0.1-1,0.1-1.5,0.2c3.8-5.1,7.8-5.8,11.2-2.1c3.5,3.8,1.4,4.8-2.4,4.9
			C270,232.6,267.5,231.6,264.1,233.1z"/>
		<path fill="#F6B154" d="M250.7,280.2c0-0.9-0.1-1.9-0.1-2.8c0.7-0.9,2.2-2.6,2.5-1.9c1.4,2.6,4.9,4.1,4.3,7.7
			c-0.2,1.1-0.8,2.2-1.3,3.4C252.8,285.5,253.4,281.4,250.7,280.2z"/>
		<path fill="#F59F35" d="M277.2,269.9c2.6,2.5,1.1,5.9,1.7,8.8c-2-1.1-4-1.5-6-0.1c0,0,0,0,0,0
			C273.4,275.2,271.3,270.6,277.2,269.9z"/>
		<path fill="#CA6036" d="M272.8,290.6c0-2,0-4,0.1-6c0,0,0,0,0,0c2.9-0.3,5.5,5.4,8.4,0c1.6,3.6-2.7,4.6-2.4,7.4l0,0
			c-1.5-0.5-3-0.9-4.6-1.4C273.7,290.6,273.3,290.6,272.8,290.6z"/>
		<path fill="#F59F35" d="M272.8,290.6c0.5,0,0.9,0.1,1.4,0.1c0.2,1.9,1.3,2.8,3.1,2.9c-2.9,1.7-5.9,3.2-5.9,7.3
			C264.3,296.4,270.6,293.7,272.8,290.6z"/>
		<path fill="#F59F35" d="M264.1,233.1c3.4-1.5,5.9-0.5,7.4,3c-0.1,1.5-0.1,2.9-0.2,4.4C265.5,241.2,267.3,234.7,264.1,233.1z"/>
		<path fill="#F59F35" d="M299.4,255.2c-0.2-3.4-1.8-6.8-0.1-10.3c0-1.5,0.1-2.9,0.1-4.4c0.9,0,1.8,0,2.7,0
			C300.8,245.4,304.4,251.1,299.4,255.2z"/>
		<path fill="#CA6036" d="M288,226.7c-0.4-0.2-1.1-0.3-1.2-0.6c-0.1-0.3,0.3-0.8,0.5-1.2c0.4,0.2,1.1,0.3,1.2,0.6
			C288.5,225.8,288.1,226.3,288,226.7z"/>
		<path fill="#F08F2B" d="M325.8,208.1c-0.1,0.2-0.2,0.4-0.4,0.6C325.6,208.5,325.7,208.3,325.8,208.1
			C325.8,208.1,325.8,208.1,325.8,208.1z"/>
		<path fill="#DE7B32" d="M278.8,292c-0.3-2.8,4-3.8,2.4-7.4c-2.9,5.4-5.5-0.3-8.4,0c-1.4-2,0-4,0.1-5.9c2-1.5,4-1.1,6,0.1
			c3.1-0.4,5.1-2.6,7.3-4.4c4.9,2.9,4.9,2.9-2.8,8.5c3.5,0.6,4.2,3.3,5.3,5.7c2-1,1.8-2.2,1.4-3.3c-0.5-1.5-0.9-3,1.3-3.3
			c1.5-0.1,2.8,0.6,2.9,2.5c0.2,3.8,0.5,7.6-1.4,11.1c-2.6,0.9-2.1-4.2-4.1-2.5c-1.8,1.6-4.1,5.8-3.4,6.7c3,3.9,1,9.8,5.4,12.9
			c-0.1,2.2,0,4.3-0.2,6.5c-0.3,2.3-2.1,2.4-3.8,2.3c-4.1-0.2-0.8-2.2-0.5-3.1c1.1-3.6-3.8-5-2.7-8.5c0-4.1,0-8.2,0-12.3
			C283.1,294.5,282.3,292.2,278.8,292z"/>
		<path fill="#DE7B32" d="M271.4,308.1c3.4,0.5,6.9,1,10.3,1.5C277.4,315.1,274.2,313.2,271.4,308.1z"/>
		<path fill="#DE7B32" d="M294.9,330.2c-0.4-0.5-0.7-1.1-1.1-1.6C295.6,328.2,294.6,329.7,294.9,330.2L294.9,330.2z"/>
		<path fill="#DE7B32" d="M294.9,330.2c0.2,0.1,0.4,0.2,0.6,0.3C295.3,330.5,295.1,330.4,294.9,330.2L294.9,330.2z"/>
		<path fill="#DE7B32" d="M391,258.2c4.8-2.8,9.6-0.7,14.4-0.1c0.1,3.4-2.4,7.3,1.7,10c0,0-0.4,0.6-0.4,0.6c-1.7,2.7-3.4,4.7-6,0.8
			c-1.3-1.9-3-3.6-5.2-1.3c-1.7,1.8-1.8,3.8,0.4,5.5c0.5,0.4,0.4,1.3,0.7,2c0,1,0,1.9,0,2.9c-1,0-2,0-3,0c-3.2-3.9-6.4-7.9-7.4-13.1
			c2.2-1.5,1.4-3.8,1.6-5.8C388.8,259.3,389.9,258.7,391,258.2z"/>
		<path fill="#F59F35" d="M412.6,259.6c-1,5.4,3,7,6.7,8.2c2.7,0.9,4.1,2.6,4,5c-0.2,2.7-2.5,3.2-4.9,3c-0.6-1.4,1.4-5.4-3.2-2.9
			c-1.4,0.8-3.7,0-5.6-0.1c0-1.5-0.1-2.9-0.1-4.4C410.1,265.3,408.5,261.5,412.6,259.6L412.6,259.6z"/>
		<path fill="#F59F35" d="M406.8,252.2c-1.9-2-3.3-4.7-6.6-4.9c1.2-2.9,3.4-2.2,5.2-2.5c2.5,0.2,5.9-0.8,6.5,2.6
			C412.6,250.8,408.7,250.8,406.8,252.2z"/>
		<path fill="#DE7B32" d="M409.7,272.8c1.9,0.1,4.1,0.9,5.6,0.1c4.6-2.5,2.6,1.5,3.2,2.9c-0.9,0.1-1.8,0.1-2.7,0.2
			c-1.2,0.2-1.2,0.7-0.2,1.3c0,1.5,0,2.9,0,4.4c-1,0-2-0.1-3.1-0.1c1.1-3.6-2.7-5.4-3-8.5L409.7,272.8z"/>
		<path fill="#DE7B32" d="M409.7,268.4c0,1.5,0.1,2.9,0.1,4.4c0,0-0.3,0.2-0.3,0.2c-1.7-0.9-2.7-2.4-2.9-4.3c0,0,0.4-0.6,0.4-0.6
			C407.9,268.2,408.8,268.3,409.7,268.4z"/>
		<path fill="#F59F35" d="M412.7,259.6c0-1.9,1-2.9,2.9-3l0.1,0.1C414.6,257.7,413.6,258.6,412.7,259.6L412.7,259.6z"/>
		<path fill="#DE7B32" d="M415.5,256.6c0.1-0.8-0.2-2,1.2-2c0.3,0,0.9,0.6,0.9,0.9C417.7,256.9,416.5,256.6,415.5,256.6
			C415.6,256.7,415.5,256.6,415.5,256.6z"/>
		<path fill="#F59F35" d="M415.6,277.3c-1-0.6-1-1,0.2-1.3C415.7,276.4,415.6,276.8,415.6,277.3z"/>
		<path fill="#F59F35" d="M383,212.8c0.4,0.5,0.9,1,1.3,1.5c0.2,0.4,0.3,0.9,0.4,1.4c0,2.8,0,5.7,0,8.5c-2.7,0-4.6,0.6-4.4,4.1
			c0.3,4.5,0,9.1,0,13.6c-4.3,1.6-4-4.6-7.4-4.4c-0.7-10.8-7.9,1.2-11.4-3.1c-1.3-1.7-1,3-1.8,4.6c-5.6,1.9-7.6-1.5-8.9-6
			c0-0.9,0-1.9,0-2.8c2.5,0.3,3.8-1.2,5.4-2.9c4.8-5,10.1-9.2,17-3c1.7,1.6,2.5-0.2,3.5-1.1c2.1-2-0.4-2.2-1.3-2.8
			c-1.2-0.8-2.8-1.9-3.9-1.7c-7.4,1.5-8-3.6-8.9-8.7c2.8-1.5,6.5,0.9,8.9-2C375.3,209.7,379.1,211.2,383,212.8z"/>
		<path fill="#F6B154" d="M380.3,241.9c0-4.5,0.3-9.1,0-13.6c-0.2-3.5,1.7-4.1,4.4-4.1c2.8,1.9,5.6,3.9,8.5,5.7
			c1.3,0.9,4.7-0.5,3.8,2.8c-0.7,2.6-3.2,1.2-6.2,0.2c2,3.4,3.3,5.8,4.7,8.1c0.8,1.3,1.4,3.1,0.2,4c-2.2,1.7-1.9-1.1-2.7-1.9
			c-0.9-0.9-1.8-0.6-2.4,0.2c-0.9,1.4-2,3.1-1.2,4.8c1.6,3.2,0.8,6.7,1.4,10.1c-1.1,0.5-2.2,1-3.3,1.6c-0.8-3.2-1.5-6.5-2.3-10
			c-2.4,1.5-4.5,2.7-6.5,3.9c-1.2-0.6-1.4-1.7-1.4-2.9c1.2-0.7,1.4-1.8,1.4-3c0.5-1.4,1.1-2.9,1.6-4.3c0.6-0.3,1.2-0.6,1.9-0.8
			C381.6,242.4,381,242.2,380.3,241.9L380.3,241.9z"/>
		<path fill="#F59F35" d="M402.4,235.9c-1.9-0.2-3-0.9-2.3-2.3c0.7-1.5,0.1-4.4,2.9-4.2c1.6,0.1,3.2,1.7,3.2,3.4
			C406.1,235.3,403.4,235,402.4,235.9z"/>
		<path fill="#F59F35" d="M394.9,217.6c-0.2,1.4,2.2,1.9,1.3,3.4c-0.2,0.3-1.9-0.1-2.5-0.6c-1.6-1.4-1.9-2.9,0.9-3.3l0.4,0.1
			L394.9,217.6z"/>
		<path fill="#DE7B32" d="M331.9,233.3c0.9,0,1.8-0.1,2.8-0.1c3.3,1.9,5.4,1.2,6-2.8c0.5-0.5,1-1.1,1.5-1.6c1.5,0.9,2.1,3.2,4.4,2.8
			c0,0,0,0.1,0,0.1c0.5,0.5,0.9,1,1.4,1.5l0,0c0,3.7-3.1,5.5-7.6,9.1c12.1-0.3,20,5.3,28.9,8.6c-8.6,2.7-8.7,7.8-0.2,16.7
			c1.6-1.2,0.1-4.9,3.4-4.7c1.8,0.1,2.5,1.7,2.7,3c0.6,3.2-2.3,3.3-4.1,3.9c-1.6,0.6-2.4,1.6-2.5,3.2c-1.5,0-3,0-4.4-0.1
			c0.4-4.3-1.6-8-2.9-11.9c-0.9-2.9-2.3-3.6-4.7-1.4c-1.6,0-3.3,0.2-4.3-1.5c-0.5-4.2-0.5-9.1-6-9.9c-3.4-0.5-3.7,2.9-4.2,5.5
			c-0.1,2.1-1,3.6-3,4.4c0-1.4-0.1-2.9-0.1-4.3c-0.1-3.6-2.2-5.4-5.6-5.9l-0.2-0.2c-3.4-4.5-8.5-3.6-13.2-4.3
			c-3.2-6.6,3-5.7,5.9-7.4C329.2,237.9,331.8,238.4,331.9,233.3z"/>
		<path fill="#DE7B32" d="M348.1,209.5c1.3,0.5,2.7,0.9,4,1.4c2.4-2,4.8-2.7,6.2,0.9c1,2.7,0.7,5.6-2.5,6.5c-3,0.8-6,2.2-9.3,1.6
			c-1.2-1.7-1.8-3.6-1.7-5.7C345.9,212.6,347,211,348.1,209.5z"/>
		<path fill="#F6B154" d="M344.9,214.1c-0.2,2.1,0.5,4,1.7,5.7c-0.2,4.1,3.3,6.7,4.3,10.4c0,0.9,0,1.9,0,2.8c-1,0-1.9,0.1-2.9,0.1
			l0,0c-0.5-0.5-0.9-1-1.4-1.5c0,0,0-0.1,0-0.1c-0.5-1.9,0.8-4-2.1-5.5C340.5,224,341.1,217.6,344.9,214.1z"/>
		<path fill="#F6B154" d="M342.1,228.7c-0.5,0.5-1,1-1.5,1.6C339.2,228,341.4,229,342.1,228.7z"/>
		<path fill="#F08F2B" d="M412.2,312.3c-0.4,0.5-0.9,1-1.3,1.5c-0.5,0.4-1,0.8-1.6,1.2c-0.9,0.2-1.7,0.3-2.6,0.5
			c-3.2-4.7-6.4-8.3-9.4,0.2c-0.6,1.6-2.5,1.2-3.9,1.2c-1.6-3.4-6.1-5-6-9.5c0-1-0.9-2-1.9-1.3c-4.1,2.7-3.2-1.3-4.2-3
			c-1.3-2.1-0.2-4.9-2.4-6.6c0.5-2.8-1.3-4.4-3-6c-1.4-2,0-3.9,0-5.9c1.7,0,3.4,0.2,4.5-1.6c4.4,0.6,3.4,5,5.3,7.7
			c1.1-2.7,2.2-5.2,2-7.9c-0.3-3.3,1.5-4.3,4.4-4c-0.4,4,0.3,7.9,1.5,11.7c-0.9,1.4-1.6,3.1-2.8,4.2c-1.7,1.6-1.1,2.9-0.2,4.5
			c0.9,1.5,2.3,1.9,3.7,1.4c2.2-0.7,0.5-2.5,0.7-3.7c0.4-2.1,0.9-4.2,1.4-6.3c0.5-0.9,1-1.8,1.5-2.8c2.9-0.6,6.5,2.3,8.8-1.7
			l0.1,0.1c0.5,3.3,0.8,6.7,1.4,10c0.8,4,4.6-1.3,5.9,1.7C413.5,302.7,412.9,307.5,412.2,312.3z M403.1,310
			c3.1-7.2,2.7-12.8,0.1-18.3C405.5,297.2,400.2,302.9,403.1,310z"/>
		<path fill="#F6B154" d="M406.6,268.7c0.2,1.9,1.2,3.4,2.9,4.3c0.4,3.1,4.1,4.9,3,8.5c-0.9,0.1-1.8,0.2-2.8,0.2
			c-3.7-3.6-8.2-5.4-13.3-6c-0.2-0.7-0.2-1.6-0.7-2c-2.2-1.8-2.1-3.8-0.4-5.5c2.2-2.3,3.9-0.6,5.2,1.3
			C403.2,273.5,404.9,271.4,406.6,268.7z"/>
		<path fill="#F08F2B" d="M396.5,275.7c5.1,0.6,9.6,2.4,13.3,6c1.8,2.5,3.5,5,5.5,7.7c-4,1.2-5.7-2.3-8.4-3.3c0,0-0.1-0.1-0.1-0.1
			c0.1-0.9,1.2-3.1-0.5-2.4c-5.7,2.5-8.2,0-9.7-5C396.5,277.7,396.5,276.7,396.5,275.7z"/>
		<path fill="#F08F2B" d="M350.8,230.2c-1-3.6-4.4-6.3-4.3-10.4c3.3,0.6,6.3-0.8,9.3-1.6c3.2-0.9,3.6-3.8,2.5-6.5
			c-1.4-3.5-3.8-2.9-6.2-0.9c0.1-3.8,0.7-6.8,5.7-5.2c3.2,1,5.8-1.9,8.9-1.6c0.5,2.3,2.4,2.7,4.3,3.1c0.2,0.3,0.4,0.6,0.4,1
			c-2.5,2.9-6.1,0.5-8.9,2c0.9,5,1.5,10.1,8.9,8.7c1.2-0.2,2.7,0.9,3.9,1.7c0.9,0.6,3.4,0.8,1.3,2.8c-0.9,0.9-1.7,2.7-3.5,1.1
			c-6.9-6.3-12.2-2-17,3C354.6,229,353.3,230.5,350.8,230.2z"/>
		<path fill="#F6B154" d="M378.9,296.5c2.2,1.7,1.1,4.5,2.4,6.6c1,1.6,0.1,5.7,4.2,3c1-0.7,1.9,0.3,1.9,1.3c-0.1,4.5,4.4,6.1,6,9.5
			c0,0.5,0,1.1,0,1.6c0,0.4,0,0.9,0,1.3c0,0,0,0,0,0c-2.4,0.5-3.4,1.4-1.1,3.4c-0.6,0.7-1.2,1.5-1.8,2.2c-0.5,0-1,0-1.5,0.1
			c-0.5,0-1,0.1-1.4,0.1c-1.8,0.9-3.7,1.8-5.8,1.6c4.3-5-3.9-1.6-3-4.4l0.1-0.1c8.8-0.1,1.4-6.8,3.8-9.7c0.9-1,0.3-3.5-1.5-2.9
			c-7.2,2.5-4-2.4-3.9-5.1C377.8,302.3,378.3,299.4,378.9,296.5z"/>
		<path fill="#F08F2B" d="M392.3,323.2c-2.3-2-1.3-2.9,1.1-3.4c0,0.9,0.1,1.8,0.1,2.8C393.2,322.9,392.8,323.1,392.3,323.2z"/>
		<path fill="#E7DDEE" d="M389,325.6c0.5-0.1,1-0.2,1.5-0.1C390.1,326.8,389.6,326.8,389,325.6z"/>
		<path fill="#F08F2B" d="M393.4,319.8c0-0.4,0-0.9,0-1.3C394.5,319,394.5,319.4,393.4,319.8z"/>
		<path fill="#DE7B32" d="M351,333.5c-4.6,2.9-10.5-0.5-14.9,3.3c-1.4-0.8-2.3-4.2-4.5-0.8c-3.4-1.5-6.8,3.4-10.3,0.1
			c0.5-1.5,0.9-3,1.4-4.5c0.1-0.9,0.1-1.8,0.2-2.7c3.4,0.3,7.7,3.7,8.9-2.8c0.9,0,1.8-0.1,2.8-0.1c4.1,5.8,11.1,6.4,14.8,1.3l0,0.1
			c0.5,0.5,0.9,1,1.4,1.6C350.9,330.4,351,331.9,351,333.5z"/>
		<path fill="#F59F35" d="M322.8,331.6c-0.5,1.5-0.9,3-1.4,4.5c-1-0.1-2-0.2-3-0.3c0.6-6.5-7.4-6.4-8.7-11.5c2-3.4,4-6.9,8.9-5.8
			C317.6,323.6,319.6,327.8,322.8,331.6z"/>
		<path fill="#F59F35" d="M302.3,267c3.3,0.5,4.4,2.1,6,7.6c0.8,2.8,1.4,6.9,5.7,2.7c2-0.5,4-1,6-1.5c0.6,1.5,2.1,3.2,1.7,4.4
			c-0.7,2.7-1.5,5,2.2,5.5c4.6,0.6,0.9-4.5,3.4-5.5c1,0,2,0,3,0c3.2-3.3,5.4-1.7,7.3,1.5c-5.2,5-10.5,9.9-15.7,14.9
			c3.9,0.1,6.5,0.9,8.8,3.9c0.8,1,2.7,3.6,4.7,2.4c2-1.1,2.1-3.3,2.1-5.8c0-3.7,1-7.3,1.6-11c2.5,0,4.9,0,7.4,0
			c1.2,3.5,6.3,1.6,7.4,5.4c-2.5,0.6-5.6,0.5-2.8,4.8c1.9,2.9,5.6,4.9,5.4,9.1c-1.9-0.5-3.7-1.1-5.6-1.6l0,0
			c0.2-4.1-3.8-5.1-5.5-7.8c-1.1-1.7-1-5-3.8-4.1c-2.2,0.8-0.7,3.9-1,5.9c-0.1,0.9,0,1.9,0.1,2.9c-0.1,2-0.1,3.9-0.2,5.9
			c-1,0.5-1.9,1.1-2.9,1.6c-1.8-0.9-3.8-2.1-5.1,0.4c-1.8,3.3-0.3,6.1,2.3,8.4c-0.1,1-0.1,2-0.2,3c-1.8-0.2-5.3,0.2-5.1-1.3
			c1-6.7-6-5.5-8.1-8.9c0.3-2.3,0.5-4.6,1-8.2c-5.1,4.6-8.8,5.5-11.6-0.9c-1.1-2.5-4.2-3-7-2.9c0-1.5-0.1-2.9-0.1-4.4
			c0-2,0-4,0.1-5.9c0.1-0.2,0.2-0.4,0.3-0.6c-0.1,0.2-0.2,0.4-0.3,0.6c-3.3,1.1-6-0.2-6.9-3.2c-0.8-2.7-1.9-4.9-3.7-6.9
			c-1.5-1.8-1.8-4.3-0.6-6.2c1.5-2.4,3.3-0.4,5,0.4C303.4,274.6,301.9,269.7,302.3,267z"/>
		<path fill="#F08F2B" d="M303.8,297.9c2.8-0.1,5.9,0.3,7,2.9c2.8,6.5,6.5,5.6,11.6,0.9c-0.4,3.6-0.7,5.9-1,8.2
			c-1,0.9-1.9,1.9-2.9,2.8c-0.3-1.1-0.2-2.7-2-2.4c-1.6,0.3-2.5,1.6-2.2,3.2c0.3,2.3,2.6,2.5,4.2,3.5c0,0.5,0,1,0,1.6
			c-4.9-1-6.8,2.5-8.9,5.8c-5.1,0.1-6.8-3.6-7.2-7.5c-0.6-5.9,1.3-11.9-1-17.8C301.4,299,303,298.3,303.8,297.9z M306.6,306
			c-1.8,5-2.2,8.3,0.4,12.8C308.5,314.1,308.7,310.9,306.6,306z"/>
		<path fill="#F6B154" d="M338.9,253.8c0,1.4,0.1,2.9,0.1,4.3c-2.1,2-3,4.7-4,7.4c-0.6,1-1.2,2-1.8,3.1c-1.8-0.1-3-0.9-3.1-2.8
			c4.3-0.8,3.7-3.1,1.5-5.6c-1.8-2-3.7-3.8-4.9-6.2c-0.9-1.7-1.3-5.1-4.1-3.8c-2.1,1,1,3.4,0.2,5.2c-2.9,0-5.8,0.1-7.3-3.1
			c0.4-3.1-1.4-7.6,4.5-7.5c4.5,0.5,7.6,7.5,13.2,2.9c0,0,0.2,0.2,0.2,0.2C333.6,251.4,335.7,253.1,338.9,253.8z"/>
		<path fill="#F59F35" d="M330.1,265.7c0.1,2,1.3,2.8,3.1,2.8c-0.6,1.2-1.7,1.4-2.9,1.4c-1.4-0.9-2.8-1.1-4.2-0.3
			c-3.8-2.5-8.1-4.5-10.5-8.7c1.5-3-7-5.8-0.1-8.9c1.5,3.2,4.4,3.1,7.3,3.1C325.2,258.8,327.6,262.3,330.1,265.7z"/>
		<path fill="#DE7B32" d="M315.5,261.1c2.4,4.2,6.7,6.2,10.5,8.7c-0.1,1.5-0.1,3.1-0.2,4.6c-2.3-0.7-5-3.3-6,1.4c-2,0.5-4,1-6,1.5
			c-1.7-5.3-1.3-10.7-1.5-16.1C313.5,261.1,314.5,261.1,315.5,261.1z"/>
		<path fill="#F59F35" d="M333.1,247.7c-5.6,4.5-8.7-2.4-13.2-2.9c0-0.4,0-0.9,0-1.3C324.6,244.1,329.8,243.1,333.1,247.7z"/>
		<path fill="#DE7B32" d="M277.3,293.6c-1.8-0.1-2.9-1-3.1-2.9c1.5,0.5,3,0.9,4.6,1.4C278.3,292.5,277.8,293.1,277.3,293.6z"/>
		<path fill="#F6B154" d="M392.1,278.8c-3-0.3-4.7,0.8-4.4,4c0.2,2.8-0.9,5.2-2,7.9c-1.8-2.7-0.9-7.1-5.3-7.7
			c-1.4-3.8-1.8-7.7-1.5-11.7c0-3.9,3.4-4.4,5.9-5.8c0.4,0,0.9,0,1.3,0c1,5.2,4.2,9.1,7.4,13.1c0,0,0,0.1,0,0.1
			C393,278.7,392.5,278.7,392.1,278.8z"/>
		<path fill="#F59F35" d="M386,265.6c-0.4,0-0.9,0-1.3,0c-0.1-1.6,0.2-3.4-1.4-4.5c-0.1-2.1-0.2-4.2-3-4.5c-0.5-1-1-1.9-1.5-2.9
			c2-1.2,4.1-2.4,6.5-3.9c0.8,3.5,1.6,6.7,2.3,10C387.5,261.8,388.3,264.1,386,265.6z"/>
		<path fill="#CA6036" d="M396.5,278.6c1.5,5,4,7.5,9.7,5c1.7-0.7,0.6,1.5,0.5,2.4c-2.3,4-5.9,1.1-8.8,1.7c-5.1-1.2-2.5-6.3-4.5-9
			c0,0,0-0.1,0-0.1C394.5,278.6,395.5,278.6,396.5,278.6z"/>
		<path fill="#F08F2B" d="M378.8,253.7c0.5,1,1,1.9,1.5,2.9c-2.9,0.5-3.8,2.6-2.4,4.7c1.4,2.2,3.7,1.7,5.5-0.2
			c1.6,1.2,1.3,2.9,1.4,4.5c-2.5,1.4-5.9,1.9-5.9,5.8c-1.5,1-3.1,2-4.6,3.1c-1.9-1.7-3.8-0.1-5.8-0.1c0-0.5,0-0.9,0-1.4
			c0.1-1.6,0.9-2.5,2.5-3.2c1.8-0.7,4.8-0.8,4.1-3.9c-0.3-1.4-1-2.9-2.7-3c-3.2-0.2-1.7,3.5-3.4,4.7c-8.5-8.9-8.4-14,0.2-16.7
			c-9-3.2-16.9-8.9-28.9-8.6c4.5-3.6,7.5-5.4,7.6-9.1c1,0,1.9-0.1,2.9-0.1c1.3,4.5,3.3,7.9,8.9,6c1.2,3.2,4.4,2.5,6.7,3.5
			c7.5,3.1,7.5,3.1,6.5-5c3.4-0.2,3.1,6,7.4,4.4l0,0c0,0.5,0,1.1,0,1.6c-0.5,1.4-1.1,2.9-1.6,4.3c-1.9,0.3-3.7,0.7-1.4,3
			C377.4,252,377.7,253.1,378.8,253.7z"/>
		<path fill="#F6B154" d="M372.9,237.5c1,8.1,1,8.1-6.5,5c-2.3-1-5.5-0.3-6.7-3.5c0.8-1.6,0.4-6.3,1.8-4.6
			C365,238.7,372.2,226.7,372.9,237.5z"/>
		<path fill="#F59F35" d="M377.4,250.8c-2.3-2.3-0.5-2.6,1.4-3C378.8,249,378.5,250.1,377.4,250.8z"/>
		<path fill="#F59F35" d="M380.4,243.5c0-0.5,0-1.1,0-1.6c0.6,0.3,1.3,0.5,1.9,0.8C381.6,243,381,243.2,380.4,243.5z"/>
		<path fill="#F08F2B" d="M335,265.5c1-2.6,1.9-5.3,4-7.4c2-0.8,3-2.3,3-4.4c3.9,0.3,6.2,4.5,10.2,4.4c1,1.7,2.7,1.4,4.3,1.5
			c0,1.5,0,2.9,0.1,4.4c-3.6,1-4.3,7.6-9.9,5.1c-1.4-0.6-2,1.6-1.2,2.5c2.5,2.9,5.1,7.6,8.1,7.9c9.6,1,8.1,6.3,6.1,12.3
			c-1.9-0.1-3.8-0.2-5.8-0.3c-1.1-3.7-6.2-1.9-7.4-5.4c-0.4-4.9-4.8-8.8-3.9-14.1C338.5,271.7,343.9,260.3,335,265.5z"/>
		<path fill="#F59F35" d="M359.6,291.8c2-6.1,3.6-11.3-6.1-12.3c-3-0.3-5.6-5-8.1-7.9c-0.8-0.9-0.1-3.1,1.2-2.5
			c5.7,2.5,6.3-4.1,9.9-5.1c1.7,1.7,3.3,3.2,3.2,6c-0.1,2.4,0.7,5,4.2,2.9c1.5,0,3,0,4.4,0.1c0,0.5,0,0.9,0,1.4
			c0.5,3.9,1.9,7.2,5.9,8.8c0.5,0.5,1,1,1.5,1.5l0,0c0,2-1.5,3.9,0,5.9c-1,0-2,0-2.9,0c-0.1-1.9,0.2-4-2.5-4.3
			c-2-0.2-3.1,0.8-3.4,2.8c-1.2,0.7-1.4,1.8-1.4,3C363.6,291.9,361.6,291.9,359.6,291.8z"/>
		<path fill="#F6B154" d="M364.1,272.9c-3.5,2.1-4.3-0.5-4.2-2.9c0.1-2.8-1.5-4.4-3.2-6c0-1.5,0-2.9-0.1-4.4
			c2.3-2.2,3.7-1.5,4.7,1.4C362.5,264.9,364.5,268.6,364.1,272.9z"/>
		<path fill="#F59F35" d="M352.3,258.1c-4.1,0.1-6.3-4.1-10.2-4.4c0.5-2.5,0.8-5.9,4.2-5.5C351.8,249,351.8,253.9,352.3,258.1z"/>
		<path fill="#F59F35" d="M338.9,253.8c-3.2-0.7-5.3-2.4-5.6-5.9C336.7,248.4,338.8,250.2,338.9,253.8z"/>
		<path fill="#F08F2B" d="M346.5,231.6c0.5,0.5,0.9,1,1.4,1.5C347.4,232.6,347,232.1,346.5,231.6z"/>
		<path fill="#DE7B32" d="M365.5,292c0.1-1.2,0.3-2.3,1.4-3c2,0.5,4,1,5.9,1.5c1,0,2,0,2.9,0c1.7,1.7,3.5,3.3,3,6
			c-0.5,2.9-1.1,5.8-1.6,8.6c-0.9,0-1.8,0-2.7,0c-0.5-4.6-6.8-1.8-7.5-6c0.8-1.7,2.2-3.7-1.1-4.4C365.9,293.8,365.7,292.9,365.5,292
			z"/>
		<path fill="#F59F35" d="M374.2,274.5c1.5-1,3.1-2,4.6-3.1c-0.3,4,0.2,7.9,1.5,11.7c-1,1.8-2.8,1.6-4.5,1.6c0,0,0,0,0,0
			c0.5-1.5,2-2.7,1.1-4.5c-0.9,0.5-1.7,1-2.6,1.6C374.3,279.3,374.3,276.9,374.2,274.5z"/>
		<path fill="#F59F35" d="M403.1,310c-2.9-7.2,2.4-12.8,0.1-18.3C405.8,297.2,406.1,302.8,403.1,310z"/>
		<path fill="#F59F35" d="M396.4,290.5c-0.5,2.1-0.9,4.2-1.4,6.3c-0.3,1.2,1.5,3-0.7,3.7c-1.5,0.5-2.9,0.1-3.7-1.4
			c-0.9-1.5-1.6-2.9,0.2-4.5c1.2-1.1,1.9-2.8,2.8-4.2C394.5,290.5,395.5,290.5,396.4,290.5z"/>
		<path fill="#DE7B32" d="M396.4,290.5c-1,0-1.9,0-2.9,0c-1.2-3.8-1.9-7.7-1.5-11.7c0.4-0.1,0.9-0.1,1.3-0.1c2,2.8-0.6,7.8,4.5,9
			C397.4,288.7,396.9,289.6,396.4,290.5z"/>
		<path fill="#F59F35" d="M374.6,305.2c0.9,0,1.8,0,2.7,0c-0.1,2.7-3.4,7.6,3.9,5.1c1.9-0.6,2.4,1.9,1.5,2.9c-2.5,2.8,5,9.6-3.8,9.7
			c-0.2-1.8,0.4-4.3-2.7-4c-0.5,0-1.3,0.9-1.4,1.4c-0.3,3.1,2.2,2.5,4,2.7c-0.9,2.8,7.2-0.7,3,4.4c-2.1,1.8-5,1.5-7.4,2.4
			c-4.8-4-5.2-10.1-7.2-15.5c-0.5-1.4,0.6-3.9-2-3.8c-2,0-2.4,2.1-2.6,3.8c-0.9,0-1.8,0-2.7,0c-1.1-2.5-2.1-4.9-3.2-7.3
			c4.4-0.7,8.6-4.4,13.3-0.4C371.3,307.5,373.1,305.8,374.6,305.2z"/>
		<path fill="#F6B154" d="M359.8,314.2c0.9,0,1.8,0,2.7,0c2.1,3.3,3.5,6.8,3.1,10.9c-0.3,2.5-0.1,5,3.2,5.5
			c-0.1,0.5-0.2,1.1-0.3,1.6c-2.1,0.2-4.4-1.4-6.2,0.9c-3.7,0.2-7.5,0.3-11.2,0.5c-0.1-1.5-0.2-3.1-0.2-4.6c-0.5-0.5-0.9-1-1.4-1.6
			c0,0,0-0.1,0-0.1c0-2,0-4,0-6.1c4.4-0.2,3.7,5.1,7.3,7.2C355.8,322.7,361.1,319.3,359.8,314.2z"/>
		<path fill="#F08F2B" d="M368.7,330.6c-3.3-0.5-3.4-3-3.2-5.5c0.5-4.1-0.9-7.6-3.1-10.9c0.3-1.7,0.6-3.8,2.6-3.8
			c2.6-0.1,1.5,2.4,2,3.8c2,5.3,2.4,11.4,7.2,15.5c-0.5,0.3-1,0.6-1.5,0.9c-0.5-0.3-1-0.6-1.6-0.8c-1.2-1.2-2.1-0.9-2.7,0.7
			L368.7,330.6z"/>
		<path fill="#F59F35" d="M368.6,330.4c0.6-1.6,1.5-1.8,2.7-0.7C370.4,330,369.5,330.2,368.6,330.4z"/>
		<path fill="#F6B154" d="M318.5,312.7c1-0.9,1.9-1.9,2.9-2.8c2.1,3.4,9.1,2.2,8.1,8.9c-0.2,1.5,3.3,1,5.1,1.3
			c-0.1,2.4,2.2,3.7,3,5.7c-1,0-2,0.1-2.9,0.1c-0.9,0-1.8,0.1-2.8,0.1c-2.1-1.8-4.1-3.7-6.5-5.7c-0.9,3.2-1.6,5.9-2.4,8.6
			c-0.1,0.9-0.1,1.8-0.2,2.7c-3.3-3.8-5.2-7.9-4.3-13.1c0-0.5,0-1,0-1.6C318.5,315.5,318.5,314.1,318.5,312.7z"/>
		<path fill="#F59F35" d="M334.6,325.9c1,0,2-0.1,2.9-0.1c2.3-0.3,4.6,2.8,6.6,0.5c2-2.2-0.8-4.3-1.4-6.4c-0.2-0.9-0.4-1.8-0.6-2.7
			c2.4,0.4,4.8,0.9,7.2,1.3c0,0.5,0,1,0.1,1.4c0,0.4,0,0.8-0.1,1.2c0,2,0,4,0,6.1C345.7,332.3,338.7,331.7,334.6,325.9z"/>
		<path fill="#F59F35" d="M323,328.8c0.7-2.7,1.5-5.4,2.4-8.6c2.3,2.1,4.4,3.9,6.5,5.7C330.7,332.6,326.3,329.2,323,328.8z"/>
		<path fill="#F59F35" d="M349.4,327.3c0.5,0.5,0.9,1,1.4,1.6C350.3,328.3,349.9,327.8,349.4,327.3z"/>
		<path fill="#F6B154" d="M374.6,305.2c-1.5,0.6-3.3,2.3-4.6,1.2c-4.7-4-8.9-0.2-13.3,0.4c-0.1-0.5-0.2-1-0.3-1.5
			c0.2-4.2-3.5-6.1-5.4-9.1c-2.8-4.3,0.3-4.2,2.8-4.8c1.9,0.1,3.8,0.2,5.8,0.3c2,0.1,3.9,0.1,5.9,0.2c0.2,0.9,0.3,1.9,0.5,2.8
			c-0.3,1.6-0.7,3.3,1.1,4.4C367.9,303.4,374.2,300.6,374.6,305.2z"/>
		<path fill="#DE7B32" d="M335,265.5c8.9-5.2,3.5,6.2,7.6,6.5c-1,5.3,3.5,9.1,3.9,14.1c-2.5,0-4.9,0-7.4,0c0-1.7,0.2-3.4-1.5-4.5
			c-1.9-3.1-4.1-4.7-7.3-1.5c0-3.4,0-6.8,0.1-10.2c1.2,0,2.3-0.3,2.9-1.4C333.8,267.5,334.4,266.5,335,265.5z"/>
		<path fill="#F6B154" d="M337.5,281.7c1.7,1.1,1.5,2.8,1.5,4.5c-0.6,3.7-1.6,7.3-1.6,11c0,2.4-0.2,4.7-2.1,5.8
			c-2,1.1-3.9-1.4-4.7-2.4c-2.3-3-4.9-3.8-8.8-3.9C327.1,291.6,332.3,286.6,337.5,281.7z"/>
		<path fill="#F08F2B" d="M356.4,305.3c0.1,0.5,0.2,1,0.3,1.5c1.1,2.5,2.1,4.9,3.2,7.4c1.2,5.2-4,8.5-3.1,14.2
			c-3.7-2.1-2.9-7.4-7.3-7.2c0-0.4,0-0.8,0.1-1.2c4.9-4.2,6.8-8.7,1.8-14.1c-0.4-0.4-0.3-1.4-0.4-2.1
			C352.7,304.3,354.6,304.8,356.4,305.3z"/>
		<path fill="#DE7B32" d="M350.9,303.7c0.1,0.7,0,1.6,0.4,2.1c5,5.5,3.1,10-1.8,14.1c-0.1-0.5-0.1-1-0.1-1.4
			c0.8-6.8-3.9-9.4-8.9-11.9c0.1-2,0.1-3.9,0.2-5.9c1.5-0.4,3.3-2.2,4.2,0.4C346,304.5,348.6,303.5,350.9,303.7L350.9,303.7z"/>
		<path fill="#CA6036" d="M340.5,306.6c5,2.5,9.7,5.1,8.9,11.9c-2.4-0.4-4.8-0.9-7.2-1.3c-1.4-2.2-5.5-2.2-4.6-6.1c0-1,0-1.9,0-2.9
			C338.6,307.7,339.5,307.1,340.5,306.6z"/>
		<path fill="#DE7B32" d="M337.5,311.1c-0.9,3.8,3.2,3.9,4.6,6.1c0.2,0.9,0.4,1.8,0.6,2.7c0.6,2.1,3.3,4.2,1.4,6.4
			c-2,2.3-4.3-0.8-6.6-0.5c-0.7-2-3-3.3-3-5.7c0.1-1,0.1-2,0.2-3C337,315.7,335.2,312.4,337.5,311.1z"/>
		<path fill="#F6B154" d="M319.9,275.7c1-4.7,3.7-2.1,6-1.4c2.1,1.6,1.2,3.9,1.4,5.9c-2.5,1,1.2,6-3.4,5.5c-3.8-0.4-2.9-2.8-2.2-5.5
			C321.9,278.9,320.5,277.2,319.9,275.7z"/>
		<path fill="#F08F2B" d="M350.9,303.7c-2.3-0.2-4.9,0.8-6-2.6c-0.9-2.6-2.7-0.8-4.2-0.4c0-1-0.2-2-0.1-2.9c0.3-2-1.2-5.1,1-5.9
			c2.8-1,2.7,2.3,3.8,4.1C347,298.6,351,299.7,350.9,303.7z"/>
		<path fill="#F08F2B" d="M337.5,311.1c-2.3,1.3-0.5,4.6-2.8,5.9c-2.6-2.3-4-5.1-2.2-8.4c1.3-2.5,3.3-1.2,5.1-0.4
			C337.6,309.2,337.6,310.1,337.5,311.1z"/>
		<path fill="#F08F2B" d="M327.3,280.2c-0.2-2,0.7-4.3-1.4-5.9c0.1-1.5,0.1-3.1,0.2-4.6c1.5-0.9,2.9-0.6,4.2,0.3
			c0,3.4,0,6.8-0.1,10.2C329.2,280.2,328.2,280.2,327.3,280.2z"/>
		<path fill="#F08F2B" d="M303.8,287.6c0.1-0.2,0.2-0.4,0.3-0.6C304,287.2,303.9,287.4,303.8,287.6L303.8,287.6z"/>
		<path fill="#F59F35" d="M306.6,306c2,4.9,1.8,8.1,0.4,12.8C304.5,314.3,304.9,311,306.6,306z"/>
		<path fill="#F59F35" d="M318.5,312.7c0,1.4,0,2.9,0,4.3c-1.6-0.9-3.9-1.2-4.2-3.5c-0.2-1.6,0.6-2.9,2.2-3.2
			C318.3,310,318.2,311.5,318.5,312.7z"/>
		<path fill="#F08F2B" d="M330.1,265.7c-2.5-3.5-4.9-6.9-7.4-10.4c0.8-1.8-2.3-4.3-0.2-5.2c2.8-1.3,3.3,2.1,4.1,3.8
			c1.2,2.5,3.2,4.2,4.9,6.2C333.8,262.6,334.4,264.9,330.1,265.7z"/>
		<path fill="#DE7B32" d="M383.4,261c-1.8,1.9-4,2.4-5.5,0.2c-1.4-2.1-0.5-4.2,2.4-4.7C383.2,256.8,383.2,258.9,383.4,261z"/>
		<path fill="#F6B154" d="M374.2,274.5c0,2.4,0.1,4.8,0.1,7.2c0,0.5,0,0.9,0,1.4c-4-1.6-5.3-4.9-5.9-8.8
			C370.4,274.4,372.4,272.8,374.2,274.5z"/>
		<path fill="#F08F2B" d="M372.9,290.5c-2-0.5-4-1-5.9-1.5c0.2-2,1.3-3,3.4-2.8C373.1,286.5,372.8,288.6,372.9,290.5z"/>
		<path fill="#F08F2B" d="M374.3,283.1c0-0.5,0-0.9,0-1.4c0.9-0.5,1.7-1,2.6-1.6c0.8,1.8-0.7,3-1.1,4.5
			C375.3,284.1,374.8,283.6,374.3,283.1z"/>
		<path fill="#F59F35" d="M367.1,299.2c-1.8-1.1-1.4-2.8-1.1-4.4C369.3,295.6,367.9,297.5,367.1,299.2z"/>
		<path fill="#F6B154" d="M378.8,322.9c-1.8-0.2-4.2,0.4-4-2.7c0-0.5,0.9-1.3,1.4-1.4C379.3,318.6,378.6,321,378.8,322.9
			C378.8,322.8,378.8,322.9,378.8,322.9z"/>
	</g>
</g>
<g id="_x23_">
	<g>
		<path fill="#125688" d="M378.8,389.1c0,0.5-0.2,1.3-0.7,2.3c-0.5,1-0.8,1.7-0.9,2c-2.5,0.4-3.6,0.6-3.3,0.6
			c-0.6,0-1.6-0.3-2.9-0.9c-1.3-0.6-2.2-0.9-2.7-1c-1.3-0.2-5.2-0.4-12-0.5c-1.7,8.2-4.2,20.5-7.3,37c4.5-0.1,7.1-0.2,7.8-0.2
			c3.3,0,6.2,0.4,8.7,1.2c3.3,1,4.9,2.5,4.9,4.5c0,0.5-0.2,1.3-0.7,2.3c-0.5,1-0.7,1.7-0.7,2c-2.7,0.4-3.8,0.6-3.3,0.6
			c-0.6,0-1.6-0.3-2.9-0.9c-1.3-0.6-2.2-0.9-2.7-1c-1.4-0.2-5.6-0.4-12.4-0.6c-0.9,6.5-1.4,13.6-1.4,21.2c0,0.4,0.2,1.1,0.7,2.1
			c0.5,1,0.7,1.7,0.7,2.1c0,1.2-0.7,2.3-2.2,3.2c-1.5,0.9-3.2,1.3-5,1.3c-4.7,0-7-2.8-7-8.4c0-5.8,0.9-13.2,2.8-22
			c-3-0.2-6.3-0.3-10.1-0.3c-3.4,0-7.1,0.1-11,0.3c-0.2,1.4-0.9,5.4-2.3,12.2c-1.1,4.9-1.6,8.9-1.6,12.2c0,4.5-2.4,6.7-7.3,6.7
			c-0.9,0-2-0.5-3.2-1.6c-1.2-1.1-1.8-1.9-1.8-2.6c0-2.9,1.4-11.4,4.2-25.4l-10.8,2.8c-1.1,0-2.2-0.7-3.2-2.2
			c-1-1.5-1.5-2.7-1.5-3.6c0-0.1,0.2-1.4,0.7-3.9l16.2-0.6l7.5-37.9c-7.8,2-11.6,3-11.3,3c-1.1,0-2.1-0.7-3.2-2.2
			c-1-1.5-1.5-2.7-1.5-3.6c0-0.1,0.2-1.4,0.7-3.9l16.7-0.6c1.9-8.5,2.8-14.3,2.8-17.3c0-2.2,0.2-4.1,0.5-5.8
			c3.3-1.5,5.9-2.2,7.7-2.2c2.2,0,4.2,0.5,6.1,1.4c1.9,0.9,2.8,2.1,2.8,3.5c0,1.2-0.6,2.6-1.6,4.4c-1.6,2.3-2.5,3.7-2.8,4.1
			c-0.6,1.7-1.9,5.6-3.8,11.8l21.2-1.1c1-4.2,2.5-11.9,4.5-23.1c3.9-1.8,6.2-2.6,6.9-2.6c2,0,4,0.5,5.9,1.4c1.9,0.9,2.8,2.1,2.8,3.4
			c0,1.4-0.6,3.1-1.6,5.1c-1.9,2.9-2.9,4.5-3.1,4.8c-0.9,2.6-2,6.1-3.3,10.4c3.9-0.1,6.1-0.2,6.6-0.2c3.3,0,6.3,0.4,8.9,1.2
			C377.2,385.6,378.8,387.1,378.8,389.1z M344.8,391.2c-3.3-0.3-6.8-0.4-10.5-0.4c-3.4,0-7.1,0.1-11,0.3c-1.7,8.7-4.2,21.8-7.5,39.2
			l21.6-1.1L344.8,391.2z"/>
	</g>
</g>
<g id="Text">
	<rect x="448.4" y="362.7" fill="none" width="429.7" height="106.3"/>
	<text transform="matrix(1 0 0 1 448.3569 461.8321)" fill="#125688" font-family="'OleoScript-Regular'" font-size="135">instatag</text>
</g>
</svg>
